<?xml version="1.0" encoding="utf-8"?>
<!-- Generator: Adobe Illustrator 26.3.1, SVG Export Plug-In . SVG Version: 6.00 Build 0)  -->
<svg version="1.1" id="Layer_1" xmlns="http://www.w3.org/2000/svg" xmlns:xlink="http://www.w3.org/1999/xlink" x="0px" y="0px"
	 viewBox="0 0 780 1200.5" style="enable-background:new 0 0 780 1200.5;" xml:space="preserve">
<style type="text/css">
	.st0{display:none;}
	.st1{display:none;fill:none;stroke:#DDDDDD;stroke-miterlimit:10;}
	.st2{fill:#FFFFFF;}
	.st3{fill:none;}
	.st4{fill:none;stroke:#888888;stroke-miterlimit:10;}
	.st5{font-family:'Helvetica';}
	.st6{font-size:12px;}
	.st7{fill:none;stroke:#DDDDDD;stroke-miterlimit:10;}
	.st8{opacity:0.7;fill:url(#SVGID_1_);enable-background:new    ;}
	.st9{fill:none;stroke:#3887C0;stroke-width:2;stroke-miterlimit:10;}
	.st10{font-family:'Helvetica-Bold';}
	.st11{font-size:14px;}
	.st12{opacity:0.7;fill:url(#SVGID_00000034052155669611232330000001472211238312357267_);enable-background:new    ;}
	.st13{opacity:0.7;fill:url(#SVGID_00000111909040947028908680000017632841741247817135_);enable-background:new    ;}
	.st14{opacity:0.7;fill:url(#SVGID_00000043436903396449424960000016196430474698521731_);enable-background:new    ;}
	.st15{opacity:0.7;fill:url(#SVGID_00000079484660801757374810000005819720255690369922_);enable-background:new    ;}
	.st16{opacity:0.7;fill:url(#SVGID_00000011010569826477434120000006257675090243859099_);enable-background:new    ;}
	.st17{opacity:0.7;fill:url(#SVGID_00000036253725443824712280000001206664582566295449_);enable-background:new    ;}
	.st18{opacity:0.7;fill:url(#SVGID_00000004510883642462122450000003926299368722439343_);enable-background:new    ;}
	.st19{opacity:0.7;fill:url(#SVGID_00000142177582699430272300000002061138314336406161_);enable-background:new    ;}
	.st20{opacity:0.7;fill:url(#SVGID_00000178926333230310115100000008029001001274269091_);enable-background:new    ;}
	.st21{fill:#ED7C31;}
	.st22{font-family:'MyriadPro-Regular';}
	.st23{fill:none;stroke:#ED7C31;stroke-miterlimit:10;}
	.st24{fill:none;stroke:#000000;stroke-miterlimit:10;}
</style>
<g id="Layer_1_00000080204335945102558500000010603832941472990115_">
	<path pointer-events="none" class="st0" d="M520.8-1846.7"/>
	<path class="st0" d="M520.8-1825.7"/>
	<path pointer-events="none" class="st0" d="M105.3-1804.2"/>
	<path class="st0" d="M104.8-1804.7"/>
	<path pointer-events="none" class="st0" d="M105.3-1460.2"/>
	<path class="st0" d="M104.8-1460.7"/>
	<path pointer-events="none" class="st0" d="M105.3-1116.2"/>
	<path class="st0" d="M104.8-1116.7"/>
	<path pointer-events="none" class="st0" d="M105.3-772.2"/>
	<path class="st0" d="M104.8-772.7"/>
	<path pointer-events="none" class="st0" d="M105.3-428.2"/>
	<path class="st0" d="M104.8-428.7"/>
	<path pointer-events="none" class="st0" d="M108.3-127.2"/>
	<path class="st0" d="M107.8-127.7"/>
	<path pointer-events="none" class="st0" d="M534.3-127.2"/>
	<path class="st0" d="M533.8-127.7"/>
	<path pointer-events="none" class="st1" d="M108.3-1504.2"/>
	<path pointer-events="none" class="st1" d="M108.3-1804.2"/>
	<path pointer-events="none" class="st0" d="M307.8-1824.7"/>
	<path class="st0" d="M107.8-1804.7"/>
	<path pointer-events="none" class="st1" d="M534.3-1504.2"/>
	<path pointer-events="none" class="st1" d="M534.3-1804.2"/>
	<path pointer-events="none" class="st0" d="M733.8-1824.7"/>
	<path class="st0" d="M533.8-1804.7"/>
	<path pointer-events="none" class="st1" d="M108.3-1160.2"/>
	<path pointer-events="none" class="st1" d="M108.3-1460.2"/>
	<path pointer-events="none" class="st0" d="M307.8-1480.7"/>
	<path class="st0" d="M107.8-1460.7"/>
	<path pointer-events="none" class="st1" d="M534.3-1160.2"/>
	<path pointer-events="none" class="st1" d="M534.3-1460.2"/>
	<path pointer-events="none" class="st0" d="M733.8-1480.7"/>
	<path class="st0" d="M533.8-1460.7"/>
	<path pointer-events="none" class="st1" d="M108.3-816.2"/>
	<path pointer-events="none" class="st1" d="M108.3-1116.2"/>
	<path pointer-events="none" class="st0" d="M307.8-1136.7"/>
	<path class="st0" d="M107.8-1116.7"/>
	<path pointer-events="none" class="st1" d="M534.3-816.2"/>
	<path pointer-events="none" class="st1" d="M534.3-1116.2"/>
	<path pointer-events="none" class="st0" d="M733.8-1136.7"/>
	<path class="st0" d="M533.8-1116.7"/>
	<path pointer-events="none" class="st1" d="M108.3-472.2"/>
	<path pointer-events="none" class="st1" d="M108.3-772.2"/>
	<path pointer-events="none" class="st0" d="M307.8-792.7"/>
	<path class="st0" d="M107.8-772.7"/>
	<path pointer-events="none" class="st1" d="M534.3-472.2"/>
	<path pointer-events="none" class="st1" d="M534.3-772.2"/>
	<path pointer-events="none" class="st0" d="M733.8-792.7"/>
	<path class="st0" d="M533.8-772.7"/>
	<path pointer-events="none" class="st1" d="M108.3-128.2"/>
	<path pointer-events="none" class="st1" d="M108.3-428.2"/>
	<path pointer-events="none" class="st0" d="M307.8-448.7"/>
	<path class="st0" d="M107.8-428.7"/>
	<path pointer-events="none" class="st1" d="M534.3-128.2"/>
	<path pointer-events="none" class="st1" d="M534.3-428.2"/>
	<path pointer-events="none" class="st0" d="M733.8-448.7"/>
	<path class="st0" d="M533.8-428.7"/>
	<path class="st0" d="M107.8-1804.7"/>
	<rect x="31" y="40.9" class="st2" width="718.1" height="1159.6"/>
	<path class="st3" d="M59.6,31.7L59.6,31.7L59.6,31.7L59.6,31.7z"/>
	<path class="st3" d="M397.6,17.5L397.6,17.5L397.6,17.5L397.6,17.5z"/>
	<path pointer-events="none" class="st3" d="M397.6,3.4L397.6,3.4L397.6,3.4L397.6,3.4z"/>
	<path class="st3" d="M57.2,31.7L57.2,31.7v202.2l0,0V31.7z"/>
	<path pointer-events="none" class="st3" d="M57.6,32L57.6,32L57.6,32L57.6,32z"/>
	<line class="st4" x1="57.6" y1="234.2" x2="53.5" y2="234.2"/>
	<line class="st4" x1="57.6" y1="200.5" x2="53.5" y2="200.5"/>
	<line class="st4" x1="57.6" y1="166.8" x2="53.5" y2="166.8"/>
	<line class="st4" x1="57.6" y1="133.1" x2="53.5" y2="133.1"/>
	<line class="st4" x1="57.6" y1="99.4" x2="53.5" y2="99.4"/>
	<line class="st4" x1="57.6" y1="65.7" x2="53.5" y2="65.7"/>
	<line class="st4" x1="57.6" y1="32" x2="53.5" y2="32"/>
	<text transform="matrix(0.8597 0 0 1 50.4141 225.3223)" class="st5 st6">0</text>
	<text transform="matrix(0.8597 0 0 1 37.916 157.708)" class="st5 st6">  40</text>
	<text transform="matrix(0.8597 0 0 1 37.873 90.0957)" class="st5 st6">  80 </text>
	<text transform="matrix(0.6597 0 0 1 11.8633 27.8184)" class="st5 st6">120 billion </text>
	<text transform="matrix(0.6597 0 0 1 11.8633 41.8184)" class="st5 st6">    gallons </text>
	<line class="st4" x1="57.6" y1="234.2" x2="57.6" y2="32"/>
	<path class="st3" d="M57.2,263.5L57.2,263.5v202.2l0,0V263.5z"/>
	<path pointer-events="none" class="st3" d="M57.6,263.9L57.6,263.9L57.6,263.9L57.6,263.9z"/>
	<line class="st4" x1="57.6" y1="466.1" x2="53.5" y2="466.1"/>
	<line class="st4" x1="57.6" y1="432.4" x2="53.5" y2="432.4"/>
	<line class="st4" x1="57.6" y1="398.7" x2="53.5" y2="398.7"/>
	<line class="st4" x1="57.6" y1="365" x2="53.5" y2="365"/>
	<line class="st4" x1="57.6" y1="331.3" x2="53.5" y2="331.3"/>
	<line class="st4" x1="57.6" y1="297.6" x2="53.5" y2="297.6"/>
	<line class="st4" x1="57.6" y1="263.9" x2="53.5" y2="263.9"/>
	<text transform="matrix(0.8597 0 0 1 50.4141 457.9111)" class="st5 st6">0</text>
	<text transform="matrix(0.8597 0 0 1 37.916 390.2979)" class="st5 st6">  40 </text>
	<text transform="matrix(0.8597 0 0 1 37.873 322.6855)" class="st5 st6">  80 </text>
	<text transform="matrix(0.8597 0 0 1 37.4873 255.0713)" class="st5 st6">120 </text>
	<line class="st4" x1="57.6" y1="466.1" x2="57.6" y2="263.9"/>
	<path class="st3" d="M57.2,495.4L57.2,495.4v202.2l0,0V495.4z"/>
	<path pointer-events="none" class="st3" d="M57.6,495.7L57.6,495.7L57.6,495.7L57.6,495.7z"/>
	<line class="st4" x1="57.6" y1="697.9" x2="53.5" y2="697.9"/>
	<line class="st4" x1="57.6" y1="664.2" x2="53.5" y2="664.2"/>
	<line class="st4" x1="57.6" y1="630.5" x2="53.5" y2="630.5"/>
	<line class="st4" x1="57.6" y1="596.8" x2="53.5" y2="596.8"/>
	<line class="st4" x1="57.6" y1="563.1" x2="53.5" y2="563.1"/>
	<line class="st4" x1="57.6" y1="529.4" x2="53.5" y2="529.4"/>
	<line class="st4" x1="57.6" y1="495.7" x2="53.5" y2="495.7"/>
	<text transform="matrix(0.8597 0 0 1 50.4141 690.499)" class="st5 st6">0</text>
	<text transform="matrix(0.8597 0 0 1 37.916 622.8877)" class="st5 st6">  40 </text>
	<text transform="matrix(0.8597 0 0 1 37.873 555.2744)" class="st5 st6">  80 </text>
	<text transform="matrix(0.8597 0 0 1 37.4873 487.6602)" class="st5 st6">120 </text>
	<line class="st4" x1="57.6" y1="697.9" x2="57.6" y2="495.7"/>
	<path class="st3" d="M57.2,727.3L57.2,727.3v202.2l0,0V727.3z"/>
	<path pointer-events="none" class="st3" d="M57.6,727.6L57.6,727.6L57.6,727.6L57.6,727.6z"/>
	<line class="st4" x1="57.6" y1="929.8" x2="53.5" y2="929.8"/>
	<line class="st4" x1="57.6" y1="896.1" x2="53.5" y2="896.1"/>
	<line class="st4" x1="57.6" y1="862.4" x2="53.5" y2="862.4"/>
	<line class="st4" x1="57.6" y1="828.7" x2="53.5" y2="828.7"/>
	<line class="st4" x1="57.6" y1="795" x2="53.5" y2="795"/>
	<line class="st4" x1="57.6" y1="761.3" x2="53.5" y2="761.3"/>
	<line class="st4" x1="57.6" y1="727.6" x2="53.5" y2="727.6"/>
	<text transform="matrix(0.8597 0 0 1 50.4141 929.0898)" class="st5 st6">0</text>
	<text transform="matrix(0.8597 0 0 1 37.916 855.4766)" class="st5 st6">  40 </text>
	<text transform="matrix(0.8597 0 0 1 37.873 787.8633)" class="st5 st6">  80 </text>
	<text transform="matrix(0.8597 0 0 1 37.4873 720.251)" class="st5 st6">120 </text>
	<line class="st4" x1="57.6" y1="929.8" x2="57.6" y2="727.6"/>
	<path class="st3" d="M57.2,959.1L57.2,959.1v202.2l0,0V959.1z"/>
	<path pointer-events="none" class="st3" d="M57.6,959.5L57.6,959.5L57.6,959.5L57.6,959.5z"/>
	<line class="st4" x1="57.6" y1="1161.7" x2="53.5" y2="1161.7"/>
	<line class="st4" x1="57.6" y1="1128" x2="53.5" y2="1128"/>
	<line class="st4" x1="57.6" y1="1094.3" x2="53.5" y2="1094.3"/>
	<line class="st4" x1="57.6" y1="1060.6" x2="53.5" y2="1060.6"/>
	<line class="st4" x1="57.6" y1="1026.9" x2="53.5" y2="1026.9"/>
	<line class="st4" x1="57.6" y1="993.2" x2="53.5" y2="993.2"/>
	<line class="st4" x1="57.6" y1="959.5" x2="53.5" y2="959.5"/>
	<text transform="matrix(0.8597 0 0 1 50.4141 1155.6787)" class="st5 st6">0</text>
	<text transform="matrix(0.8597 0 0 1 37.916 1088.0654)" class="st5 st6">  40 </text>
	<text transform="matrix(0.8597 0 0 1 37.873 1020.4521)" class="st5 st6">  80 </text>
	<text transform="matrix(0.8597 0 0 1 37.4873 952.8389)" class="st5 st6">120 </text>
	<line class="st4" x1="57.6" y1="1161.7" x2="57.6" y2="959.5"/>
	<path class="st3" d="M59.6,1162H387l0,0H59.6z"/>
	<path pointer-events="none" class="st3" d="M60.1,1162.3L60.1,1162.3L60.1,1162.3L60.1,1162.3z"/>
	<line class="st4" x1="84.6" y1="1162.3" x2="84.6" y2="1165.7"/>
	<line class="st4" x1="126.3" y1="1162.3" x2="126.3" y2="1165.7"/>
	<line class="st4" x1="168.1" y1="1162.3" x2="168.1" y2="1165.7"/>
	<line class="st4" x1="209.8" y1="1162.3" x2="209.8" y2="1165.7"/>
	<line class="st4" x1="251.5" y1="1162.3" x2="251.5" y2="1165.7"/>
	<line class="st4" x1="293.3" y1="1162.3" x2="293.3" y2="1165.7"/>
	<line class="st4" x1="335" y1="1162.3" x2="335" y2="1165.7"/>
	<line class="st4" x1="376.7" y1="1162.3" x2="376.7" y2="1165.7"/>
	<line class="st4" x1="60.1" y1="1162.3" x2="387.4" y2="1162.3"/>
	<path class="st3" d="M408.2,1162h327.3l0,0H408.2z"/>
	<path pointer-events="none" class="st3" d="M408.7,1162.3L408.7,1162.3L408.7,1162.3L408.7,1162.3z"/>
	<line class="st4" x1="433.2" y1="1162.3" x2="433.2" y2="1165.7"/>
	<line class="st4" x1="474.9" y1="1162.3" x2="474.9" y2="1165.7"/>
	<line class="st4" x1="516.7" y1="1162.3" x2="516.7" y2="1165.7"/>
	<line class="st4" x1="558.4" y1="1162.3" x2="558.4" y2="1165.7"/>
	<line class="st4" x1="600.1" y1="1162.3" x2="600.1" y2="1165.7"/>
	<line class="st4" x1="641.9" y1="1162.3" x2="641.9" y2="1165.7"/>
	<line class="st4" x1="683.6" y1="1162.3" x2="683.6" y2="1165.7"/>
	<line class="st4" x1="725.3" y1="1162.3" x2="725.3" y2="1165.7"/>
	<g>
		<text transform="matrix(1.2141 0 0 1 52.7051 1178.4531)" class="st5 st6">   2015</text>
		<text transform="matrix(1.2141 0 0 1 98.0391 1178.4531)" class="st5 st6">   2016</text>
		<text transform="matrix(1.2141 0 0 1 139.7363 1178.4531)" class="st5 st6">   2017</text>
		<text transform="matrix(1.2141 0 0 1 181.5439 1178.4531)" class="st5 st6">   2018</text>
		<text transform="matrix(1.2141 0 0 1 223.3066 1178.4531)" class="st5 st6">   2019</text>
		<text transform="matrix(1.2141 0 0 1 265.0117 1178.4531)" class="st5 st6">   2020</text>
		<text transform="matrix(1.2141 0 0 1 307.9033 1178.4531)" class="st5 st6">   2021</text>
		<text transform="matrix(1.2141 0 0 1 348.4717 1178.4531)" class="st5 st6">   2022</text>
		<text transform="matrix(1.2141 0 0 1 404.9424 1178.4531)" class="st5 st6">   2015</text>
		<text transform="matrix(1.2141 0 0 1 446.6392 1178.4531)" class="st5 st6">   2016</text>
		<text transform="matrix(1.2141 0 0 1 488.3369 1178.4531)" class="st5 st6">   2017</text>
		<text transform="matrix(1.2141 0 0 1 530.1436 1178.4531)" class="st5 st6">   2018</text>
		<text transform="matrix(1.2141 0 0 1 571.9072 1178.4531)" class="st5 st6">   2019</text>
		<text transform="matrix(1.2141 0 0 1 613.6113 1178.4531)" class="st5 st6">   2020</text>
		<text transform="matrix(1.2141 0 0 1 656.5039 1178.4531)" class="st5 st6">   2021</text>
		<text transform="matrix(1.2141 0 0 1 697.0723 1178.4531)" class="st5 st6">   2022</text>
	</g>
	<line class="st4" x1="408.7" y1="1162.3" x2="736" y2="1162.3"/>
	<path pointer-events="none" class="st3" d="M60.1,234.2L60.1,234.2L60.1,234.2L60.1,234.2z"/>
	<path pointer-events="none" class="st3" d="M60.1,32L60.1,32L60.1,32L60.1,32z"/>
	<line class="st7" x1="60.1" y1="234.2" x2="387.4" y2="234.2"/>
	<line class="st7" x1="60.1" y1="200.5" x2="387.4" y2="200.5"/>
	<line class="st7" x1="60.1" y1="166.8" x2="387.4" y2="166.8"/>
	<line class="st7" x1="60.1" y1="133.1" x2="387.4" y2="133.1"/>
	<line class="st7" x1="60.1" y1="99.4" x2="387.4" y2="99.4"/>
	<line class="st7" x1="60.1" y1="65.7" x2="387.4" y2="65.7"/>
	
		<linearGradient id="SVGID_1_" gradientUnits="userSpaceOnUse" x1="-361.9962" y1="-182.4333" x2="-361.9962" y2="-181.7594" gradientTransform="matrix(400 0 0 -14.8481 145019.9062 -2474.9036)">
		<stop  offset="0" style="stop-color:#9CC8E2"/>
		<stop  offset="1" style="stop-color:#3887C0"/>
	</linearGradient>
	<path class="st8" d="M59.6,224.4l3.4-0.6l3.5,0.9L70,225l3.4,0.4l3.5,2.2l3.4,1.2l3.5-0.6l3.5,0.3l3.2-1.1l3.5-0.7l3.4-0.1h3.5
		l3.4-0.5l3.5-0.1l3.5,0.3l3.4,0.3l3.5,1.6l3.4,0.5l3.5,0.6l3.5-0.1l3.3-0.3l3.5-1.1l3.4-1l3.5-0.7l3.4-0.5l3.5,0.2l3.5,0.5l3.4,0.6
		l3.5,1.5l3.4,0.7l3.5,0.2l3.5,0.4l3.2-0.8l3.5-0.8l3.4-1.8l3.5-0.6l3.4-0.5l3.5,0.1l3.5,0.5l3.4-0.1l3.5,1.9l3.4,0.3l3.5,0.7
		l3.5-0.1l3.2,0.6l3.5-0.9l3.4-1.7l3.5-0.8l3.4-0.5l3.5,0.1l3.5,0.9l3.4,0.6l3.5,0.8l3.4,1.5l3.5,0.2l3.5,0.5l3.2-0.6l3.5-1.4
		l3.4-0.6l3.5-0.5l3.4-0.8l3.5-0.2l3.5,0.4l3.4-0.1l3.5,1.5l3.4,1.9h3.5l3.5-0.5h3.3l3.5,0.1l3.4-2.2l3.5-0.6l3.4-0.7l3.5-0.1
		l3.5,0.3l3.4,0.1l3.5,1.4l3.4,0.7l3.5,0.5l3.5,0.5l3.2-0.4l3.5-1.6l3.4-1l3.5-0.5l3.4-0.2l3.5,0.1l3.5,0.8l3.4,0.7l3.5,1.3l3.4,0.8
		l3.5,0.3l3.5-0.5l3.2-0.9l3.5,0.4v5.9h-3.5h-3.2h-3.5h-3.5h-3.4h-3.5h-3.4h-3.5h-3.5h-3.4h-3.5H342h-3.5h-3.2h-3.5h-3.5h-3.4h-3.5
		H321h-3.5H314h-3.4h-3.5h-3.4h-3.5h-3.3H293h-3.5h-3.4h-3.5h-3.4h-3.5H272h-3.4H265h-3.4H258h-3.2h-3.5h-3.5h-3.4h-3.5h-3.4H234
		h-3.5h-3.4h-3.5h-3.4h-3.5h-3.2H210h-4h-3.4H199h-3.4H192h-3.5H185h-3.5h-3.4h-3.5h-3.2h-3.5h-3.5H161h-3.5h-3.4h-3.5h-3.5h-3.4
		h-3.5h-3.4h-3.5H130h-3.5H123h-3.4h-3.5h-3.4h-3.5h-3.5h-3.4h-3.5h-3.4h-3.5h-3.2h-3.5h-3.5h-3.4h-3.5h-3.4h-3.5h-3.5H61v-9.7
		L59.6,224.4L59.6,224.4z"/>
	<path class="st9" d="M59.6,224.4l3.4-0.6l3.5,0.9L70,225l3.4,0.4l3.5,2.2l3.4,1.2l3.5-0.6l3.5,0.3l3.2-1.1l3.5-0.7l3.4-0.1h3.5
		l3.4-0.5l3.5-0.1l3.5,0.3l3.4,0.3l3.5,1.6l3.4,0.5l3.5,0.6l3.5-0.1l3.3-0.3l3.5-1.1l3.4-1l3.5-0.7l3.4-0.5l3.5,0.2l3.5,0.5l3.4,0.6
		l3.5,1.5l3.4,0.7l3.5,0.2l3.5,0.4l3.2-0.8l3.5-0.8l3.4-1.8l3.5-0.6l3.4-0.5l3.5,0.1l3.5,0.5l3.4-0.1l3.5,1.9l3.4,0.3l3.5,0.7
		l3.5-0.1l3.2,0.6l3.5-0.9l3.4-1.7l3.5-0.8l3.4-0.5l3.5,0.1l3.5,0.9l3.4,0.6l3.5,0.8l3.4,1.5l3.5,0.2l3.5,0.5l3.2-0.6l3.5-1.4
		l3.4-0.6l3.5-0.5l3.4-0.8l3.5-0.2l3.5,0.4l3.4-0.1l3.5,1.5l3.4,1.9h3.5l3.5-0.5h3.3l3.5,0.1l3.4-2.2l3.5-0.6l3.4-0.7l3.5-0.1
		l3.5,0.3l3.4,0.1l3.5,1.4l3.4,0.7l3.5,0.5l3.5,0.5l3.2-0.4l3.5-1.6l3.4-1l3.5-0.5l3.4-0.2l3.5,0.1l3.5,0.8l3.4,0.7l3.5,1.3l3.4,0.8
		l3.5,0.3l3.5-0.5l3.2-0.9l3.5,0.4"/>
	<path pointer-events="none" class="st3" d="M223.3,18.2L223.3,18.2L223.3,18.2L223.3,18.2z"/>
	<text transform="matrix(1.2141 0 0 1 161.291 25.5908)" class="st10 st11">Central Coast</text>
	<path pointer-events="none" class="st3" d="M408.7,234.2L408.7,234.2L408.7,234.2L408.7,234.2z"/>
	<path pointer-events="none" class="st3" d="M408.7,32L408.7,32L408.7,32L408.7,32z"/>
	<line class="st7" x1="408.7" y1="234.2" x2="736" y2="234.2"/>
	<line class="st7" x1="408.7" y1="200.5" x2="736" y2="200.5"/>
	<line class="st7" x1="408.7" y1="166.8" x2="736" y2="166.8"/>
	<line class="st7" x1="408.7" y1="133.1" x2="736" y2="133.1"/>
	<line class="st7" x1="408.7" y1="99.4" x2="736" y2="99.4"/>
	<line class="st7" x1="408.7" y1="65.7" x2="736" y2="65.7"/>
	
		<linearGradient id="SVGID_00000052104606025323795620000002189756831727656370_" gradientUnits="userSpaceOnUse" x1="-362.1895" y1="-135.7119" x2="-362.1895" y2="-135.0378" gradientTransform="matrix(400 0 0 -20.4406 145445.9062 -2540.1541)">
		<stop  offset="0" style="stop-color:#9CC8E2"/>
		<stop  offset="1" style="stop-color:#3887C0"/>
	</linearGradient>
	<path style="opacity:0.7;fill:url(#SVGID_00000052104606025323795620000002189756831727656370_);enable-background:new    ;" d="
		M408.2,221.7l3.4-1.6l3.5,0.4l3.5,2.5l3.4,0.6l3.5,0.4l3.4,2.9l3.5,0.1l3.5-0.3l3.2-0.5l3.5-1.9l3.4-0.5l3.5-0.1l3.4,0.4l3.5-1
		l3.5,1.1l3.4,1.6l3.5-0.2l3.4,1.6l3.5,1.1l3.5-0.4l3.3-0.8l3.5-0.7l3.4-1.3l3.5-1.5l3.4-1l3.5-0.4l3.5,0.8l3.4,1.3l3.5,1l3.4,1.8
		l3.5,1.6l3.5-0.3l3.2-1l3.5-2.8l3.4-0.7l3.5-1.6l3.4-1.2l3.5,0.8l3.5,1.1l3.4,0.9l3.5,0.7l3.4,2l3.5,0.4l3.5-0.1l3.2-0.3l3.5-1.7
		l3.4-1.3l3.5-1l3.4-1l3.5,0.1l3.5,0.7l3.4,2.3l3.5,0.3l3.4,2.1l3.5,0.3l3.5,1.4l3.2-1.6l3.5-2.2l3.4,0.4l3.5-1.2l3.4-2.1l3.5-0.2
		l3.5,0.8l3.4,3.2l3.5-0.7l3.4,2.7l3.5,0.1l3.5-0.8l3.3,0.6l3.5-0.8l3.4-2.9l3.5-1.7l3.4-1.3l3.5-0.5l3.5,1.5l3.4,1.3l3.5,0.4
		l3.4,2.5l3.5,0.5l3.5,0.7l3.2-1.2l3.5-1.9l3.4-1.4l3.5-1.3l3.4-0.2l3.5,0.2l3.5,1.1l3.4,1.8l3.5-0.6l3.4,2.7l3.5-0.1l3.5,0.3
		l3.2-0.6l3.5-1.8v9.6h0.1h-3.2h-3.5h-3.5h-3.4h-3.5h-3.4H708h-3.5h-3.4h-3.5h-3.4h-3.5h-3.2H684h-4h-3.4H673h-3.4H666h-3.5H659
		h-3.5H652h-3.5h-3.3h-3.5h-3.5h-3.4h-3.5h-3.4h-3.5h-3.5h-3.4H614h-3.4h-3.5h-3.2h-3.5h-3.5h-3.4H590h-3.4h-3.5h-3.5h-3.4h-3.5
		h-3.4h-3.5h-3.2h-3.5h-3.5h-3.4h-3.5h-3.4h-3.5h-3.5h-3.4h-3.5H528h-3.5h-3.2h-3.5h-3.5h-3.4h-3.5H504h-3.5H497h-3.4h-3.5h-3.4
		h-3.5H478h-3.5H471h-3.4H464h-3.4H457h-3.5H450h-3.5H443h-3.5h-3.2h-3.5h-3.5h-3.4h-3.5H419h-3.5H412h-3.4v-12.4L408.2,221.7
		L408.2,221.7z"/>
	<path class="st9" d="M408.2,221.7l3.4-1.6l3.5,0.4l3.5,2.5l3.4,0.6l3.5,0.4l3.4,2.9l3.5,0.1l3.5-0.3l3.2-0.5l3.5-1.9l3.4-0.5
		l3.5-0.1l3.4,0.4l3.5-1l3.5,1.1l3.4,1.6l3.5-0.2l3.4,1.6l3.5,1.1l3.5-0.4l3.3-0.8l3.5-0.7l3.4-1.3l3.5-1.5l3.4-1l3.5-0.4l3.5,0.8
		l3.4,1.3l3.5,1l3.4,1.8l3.5,1.6l3.5-0.3l3.2-1l3.5-2.8l3.4-0.7l3.5-1.6l3.4-1.2l3.5,0.8l3.5,1.1l3.4,0.9l3.5,0.7l3.4,2l3.5,0.4
		l3.5-0.1l3.2-0.3l3.5-1.7l3.4-1.3l3.5-1l3.4-1l3.5,0.1l3.5,0.7l3.4,2.3l3.5,0.3l3.4,2.1l3.5,0.3l3.5,1.4l3.2-1.6l3.5-2.2l3.4,0.4
		l3.5-1.2l3.4-2.1l3.5-0.2l3.5,0.8l3.4,3.2l3.5-0.7l3.4,2.7l3.5,0.1l3.5-0.8l3.3,0.6l3.5-0.8l3.4-2.9l3.5-1.7l3.4-1.3l3.5-0.5
		l3.5,1.5l3.4,1.3l3.5,0.4l3.4,2.5l3.5,0.5l3.5,0.7l3.2-1.2l3.5-1.9l3.4-1.4l3.5-1.3l3.4-0.2l3.5,0.2l3.5,1.1l3.4,1.8l3.5-0.6
		l3.4,2.7l3.5-0.1l3.5,0.3l3.2-0.6l3.5-1.8"/>
	<path pointer-events="none" class="st3" d="M571.9,18.2L571.9,18.2L571.9,18.2L571.9,18.2z"/>
	<text transform="matrix(1.2141 0 0 1 507.6172 25.5908)" class="st10 st11">Colorado River</text>
	<path pointer-events="none" class="st3" d="M60.1,466.1L60.1,466.1L60.1,466.1L60.1,466.1z"/>
	<path pointer-events="none" class="st3" d="M60.1,263.9L60.1,263.9L60.1,263.9L60.1,263.9z"/>
	<line class="st7" x1="60.1" y1="466.1" x2="387.4" y2="466.1"/>
	<line class="st7" x1="60.1" y1="432.4" x2="387.4" y2="432.4"/>
	<line class="st7" x1="60.1" y1="398.7" x2="387.4" y2="398.7"/>
	<line class="st7" x1="60.1" y1="365" x2="387.4" y2="365"/>
	<line class="st7" x1="60.1" y1="331.3" x2="387.4" y2="331.3"/>
	<line class="st7" x1="60.1" y1="297.6" x2="387.4" y2="297.6"/>
	
		<linearGradient id="SVGID_00000031192491567651333690000000240280089705699734_" gradientUnits="userSpaceOnUse" x1="-361.9962" y1="-522.6238" x2="-361.9962" y2="-521.9499" gradientTransform="matrix(400 0 0 -4.7429 145019.9062 -2013.0032)">
		<stop  offset="0" style="stop-color:#9CC8E2"/>
		<stop  offset="1" style="stop-color:#3887C0"/>
	</linearGradient>
	<path style="opacity:0.7;fill:url(#SVGID_00000031192491567651333690000000240280089705699734_);enable-background:new    ;" d="
		M59.6,463.1l3.4-0.2l3.5,0.2l3.5,0.1l3.4,0.5l3.5,0.5l3.4-0.1l3.5,0.1l3.5,0.1l3.2-0.4L94,464l3.4-0.2l3.5-0.4l3.4,0.1l3.5-0.1
		l3.5,0.2l3.4,0.1l3.5,0.6h3.4l3.5,0.1h3.5l3.3-0.1l3.5-0.1l3.4-0.3l3.5-0.7h3.4h3.5l3.5,0.1l3.4,0.4l3.5,0.6l3.4-0.1l3.5,0.1
		l3.5,0.2l3.2-0.1l3.5-0.1l3.4-0.6l3.5-0.3l3.4-0.7l3.5,0.4l3.5,0.1l3.4,0.3l3.5,0.8h3.4l3.5-0.1l3.5,0.2l3.2-0.1l3.5-0.2l3.4-0.3
		l3.5-0.4l3.4-0.4l3.5,0.5l3.5,0.2h3.4l3.5,0.5l3.4,0.2l3.5,0.2h3.5l3.2-0.1l3.5-0.1h3.4l3.5-0.4l3.4-0.7l3.5,0.2l3.5,0.2h3.4
		l3.5,0.5l3.4,0.3l3.5,0.2h3.5l3.3-0.2l3.5-0.2l3.4-0.2l3.5-0.2l3.4-0.7l3.5,0.3h3.5l3.4-0.2l3.5,0.8l3.4,0.2h3.5l3.5,0.2l3.2,0.1
		l3.5-0.6l3.4-0.2l3.5-0.1l3.4-0.3l3.5,0.3l3.5,0.2l3.4,0.2l3.5,0.6l3.4-0.1l3.5,0.1l3.5,0.1l3.2-0.2l3.5,0.1v1.6h-3.5h-3.2h-3.5
		h-3.5h-3.4h-3.5h-3.4h-3.5h-3.5h-3.4h-3.5H342h-3.5h-3.2h-3.5h-3.5h-3.4h-3.5H321h-3.5H314h-3.4h-3.5h-3.4h-3.5h-3.3H293h-3.5h-3.4
		h-3.5h-3.4h-3.5H272h-3.4H265h-3.4H258h-3.2h-3.5h-3.5h-3.4h-3.5h-3.4H234h-3.5h-3.4h-3.5h-3.4h-3.5h-3.2H210h-4h-3.4H199h-3.4H192
		h-3.5H185h-3.5h-3.4h-3.5h-3.2h-3.5h-3.5H161h-3.5h-3.4h-3.5h-3.5h-3.4h-3.5h-3.4h-3.5H130h-3.5H123h-3.4h-3.5h-3.4h-3.5h-3.5h-3.4
		h-3.5h-3.4h-3.5h-3.2h-3.5h-3.5h-3.4h-3.5h-3.4h-3.5h-3.5H61v-3.2L59.6,463.1L59.6,463.1z"/>
	<path class="st9" d="M59.6,463.1l3.4-0.2l3.5,0.2l3.5,0.1l3.4,0.5l3.5,0.5l3.4-0.1l3.5,0.1l3.5,0.1l3.2-0.4L94,464l3.4-0.2l3.5-0.4
		l3.4,0.1l3.5-0.1l3.5,0.2l3.4,0.1l3.5,0.6h3.4l3.5,0.1h3.5l3.3-0.1l3.5-0.1l3.4-0.3l3.5-0.7h3.4h3.5l3.5,0.1l3.4,0.4l3.5,0.6
		l3.4-0.1l3.5,0.1l3.5,0.2l3.2-0.1l3.5-0.1l3.4-0.6l3.5-0.3l3.4-0.7l3.5,0.4l3.5,0.1l3.4,0.3l3.5,0.8h3.4l3.5-0.1l3.5,0.2l3.2-0.1
		l3.5-0.2l3.4-0.3l3.5-0.4l3.4-0.4l3.5,0.5l3.5,0.2h3.4l3.5,0.5l3.4,0.2l3.5,0.2h3.5l3.2-0.1l3.5-0.1h3.4l3.5-0.4l3.4-0.7l3.5,0.2
		l3.5,0.2h3.4l3.5,0.5l3.4,0.3l3.5,0.2h3.5l3.3-0.2l3.5-0.2l3.4-0.2l3.5-0.2l3.4-0.7l3.5,0.3h3.5l3.4-0.2l3.5,0.8l3.4,0.2h3.5
		l3.5,0.2l3.2,0.1l3.5-0.6l3.4-0.2l3.5-0.1l3.4-0.3l3.5,0.3l3.5,0.2l3.4,0.2l3.5,0.6l3.4-0.1l3.5,0.1l3.5,0.1l3.2-0.2l3.5,0.1"/>
	<path pointer-events="none" class="st3" d="M223.3,250.1L223.3,250.1L223.3,250.1L223.3,250.1z"/>
	<text transform="matrix(1.2141 0 0 1 164.4746 257.4531)" class="st10 st11">North Coast</text>
	<path pointer-events="none" class="st3" d="M408.7,466.1L408.7,466.1L408.7,466.1L408.7,466.1z"/>
	<path pointer-events="none" class="st3" d="M408.7,263.9L408.7,263.9L408.7,263.9L408.7,263.9z"/>
	<line class="st7" x1="408.7" y1="466.1" x2="736" y2="466.1"/>
	<line class="st7" x1="408.7" y1="432.4" x2="736" y2="432.4"/>
	<line class="st7" x1="408.7" y1="398.7" x2="736" y2="398.7"/>
	<line class="st7" x1="408.7" y1="365" x2="736" y2="365"/>
	<line class="st7" x1="408.7" y1="331.3" x2="736" y2="331.3"/>
	<line class="st7" x1="408.7" y1="297.6" x2="736" y2="297.6"/>
	
		<linearGradient id="SVGID_00000046301988023854606920000012820499361504706229_" gradientUnits="userSpaceOnUse" x1="-362.1895" y1="-1293.2368" x2="-362.1895" y2="-1292.563" gradientTransform="matrix(400 0 0 -1.891 145445.9062 -1979.7295)">
		<stop  offset="0" style="stop-color:#9CC8E2"/>
		<stop  offset="1" style="stop-color:#3887C0"/>
	</linearGradient>
	<path style="opacity:0.7;fill:url(#SVGID_00000046301988023854606920000012820499361504706229_);enable-background:new    ;" d="
		M408.2,464.6l3.4-0.1l3.5,0.2l3.5,0.1l3.4,0.3l3.5,0.2h3.4h3.5l3.5,0.1h3.2h3.5l3.4-0.1l3.5-0.2l3.4-0.1h3.5l3.5,0.1l3.4,0.3
		l3.5,0.2l3.4-0.1l3.5,0.1h3.5h3.3h3.5l3.4-0.1l3.5-0.4l3.4-0.3h3.5l3.5,0.2l3.4,0.4l3.5,0.2l3.4-0.1h3.5l3.5,0.1h3.2h3.5l3.4-0.2
		l3.5-0.3l3.4-0.3l3.5,0.2l3.5,0.3l3.4,0.3l3.5,0.2l3.4-0.1h3.5h3.5h3.2h3.5l3.4-0.2l3.5-0.3l3.4-0.2l3.5,0.1l3.5,0.1l3.4,0.3
		l3.5,0.2l3.4-0.1h3.5l3.5,0.1l3.2-0.1h3.5l3.4-0.2l3.5-0.2l3.4-0.2h3.5l3.5,0.2l3.4,0.3l3.5,0.1h3.4h3.5h3.5h3.3h3.5l3.4-0.3
		l3.5-0.2l3.4-0.2h3.5l3.5,0.1l3.4,0.3l3.5,0.3h3.4h3.5h3.5h3.2h3.5l3.4-0.3l3.5-0.3l3.4-0.1l3.5,0.1l3.5,0.2l3.4,0.3l3.5,0.2h3.4
		h3.5l3.5,0.1l3.2-0.1h3.5v0.4h0.1h-3.2h-3.5h-3.5h-3.4h-3.5h-3.4H708h-3.5h-3.4h-3.5h-3.4h-3.5h-3.2H684h-4h-3.4H673h-3.4H666h-3.5
		H659h-3.5H652h-3.5h-3.3h-3.5h-3.5h-3.4h-3.5h-3.4h-3.5h-3.5h-3.4H614h-3.4h-3.5h-3.2h-3.5h-3.5h-3.4H590h-3.4h-3.5h-3.5h-3.4h-3.5
		h-3.4h-3.5h-3.2h-3.5h-3.5h-3.4h-3.5h-3.4h-3.5h-3.5h-3.4h-3.5H528h-3.5h-3.2h-3.5h-3.5h-3.4h-3.5H504h-3.5H497h-3.4h-3.5h-3.4
		h-3.5H478h-3.5H471h-3.4H464h-3.4H457h-3.5H450h-3.5H443h-3.5h-3.2h-3.5h-3.5h-3.4h-3.5H419h-3.5H412h-3.4v-1.5H408.2z"/>
	<path class="st9" d="M408.2,464.6l3.4-0.1l3.5,0.2l3.5,0.1l3.4,0.3l3.5,0.2h3.4h3.5l3.5,0.1h3.2h3.5l3.4-0.1l3.5-0.2l3.4-0.1h3.5
		l3.5,0.1l3.4,0.3l3.5,0.2l3.4-0.1l3.5,0.1h3.5h3.3h3.5l3.4-0.1l3.5-0.4l3.4-0.3h3.5l3.5,0.2l3.4,0.4l3.5,0.2l3.4-0.1h3.5l3.5,0.1
		h3.2h3.5l3.4-0.2l3.5-0.3l3.4-0.3l3.5,0.2l3.5,0.3l3.4,0.3l3.5,0.2l3.4-0.1h3.5h3.5h3.2h3.5l3.4-0.2l3.5-0.3l3.4-0.2l3.5,0.1
		l3.5,0.1l3.4,0.3l3.5,0.2l3.4-0.1h3.5l3.5,0.1l3.2-0.1h3.5l3.4-0.2l3.5-0.2l3.4-0.2h3.5l3.5,0.2l3.4,0.3l3.5,0.1h3.4h3.5h3.5h3.3
		h3.5l3.4-0.3l3.5-0.2l3.4-0.2h3.5l3.5,0.1l3.4,0.3l3.5,0.3h3.4h3.5h3.5h3.2h3.5l3.4-0.3l3.5-0.3l3.4-0.1l3.5,0.1l3.5,0.2l3.4,0.3
		l3.5,0.2h3.4h3.5l3.5,0.1l3.2-0.1h3.5"/>
	<path pointer-events="none" class="st3" d="M571.9,250.1L571.9,250.1L571.9,250.1L571.9,250.1z"/>
	<text transform="matrix(1.2141 0 0 1 506.6982 257.4531)" class="st10 st11">North Lahontan</text>
	<path pointer-events="none" class="st3" d="M60.1,697.9L60.1,697.9L60.1,697.9L60.1,697.9z"/>
	<path pointer-events="none" class="st3" d="M60.1,495.7L60.1,495.7L60.1,495.7L60.1,495.7z"/>
	<line class="st7" x1="60.1" y1="697.9" x2="387.4" y2="697.9"/>
	<line class="st7" x1="60.1" y1="664.2" x2="387.4" y2="664.2"/>
	<line class="st7" x1="60.1" y1="630.5" x2="387.4" y2="630.5"/>
	<line class="st7" x1="60.1" y1="596.8" x2="387.4" y2="596.8"/>
	<line class="st7" x1="60.1" y1="563.1" x2="387.4" y2="563.1"/>
	<line class="st7" x1="60.1" y1="529.4" x2="387.4" y2="529.4"/>
	
		<linearGradient id="SVGID_00000025412002836050360080000014512895834014348724_" gradientUnits="userSpaceOnUse" x1="-361.9962" y1="-48.4582" x2="-361.9962" y2="-47.7843" gradientTransform="matrix(400 0 0 -62.8217 145019.9062 -2346.6216)">
		<stop  offset="0" style="stop-color:#9CC8E2"/>
		<stop  offset="1" style="stop-color:#3887C0"/>
	</linearGradient>
	<path style="opacity:0.7;fill:url(#SVGID_00000025412002836050360080000014512895834014348724_);enable-background:new    ;" d="
		M59.6,660.7l3.4-3.5l3.5,3.6l3.5,4.3l3.4,5.6l3.5,9.5l3.4,2.8l3.5-0.2l3.5,1.1l3.2-5.9l3.5-1.1l3.4-3.3l3.5-3.9l3.4-3.6l3.5,0.6
		l3.5,2.9l3.4,3.6l3.5,8.2l3.4,2.3l3.5,0.4l3.5,0.5l3.3-1l3.5-4.8l3.4-6.4l3.5-8.4l3.4-4.8h3.5l3.5,5.5l3.4,10.2l3.5,7.7l3.4,1
		l3.5,0.5l3.5,1.8l3.2-2.6l3.5-0.8l3.4-14.2l3.5-6l3.4-6.6l3.5,1l3.5,5.8l3.4,4.9l3.5,13.6l3.4,1.5l3.5,1.3l3.5-0.3l3.2-0.3l3.5-3.1
		l3.4-11l3.5-6.7l3.4-4.4l3.5,5.1l3.5,4.9l3.4,4.2l3.5,6.4l3.4,5.9l3.5,0.7l3.5,1.8l3.2-1.3l3.5-3.7l3.4-6.5l3.5-6.3l3.4-4.4
		l3.5-1.6l3.5,5.3l3.4,4.5l3.5,6l3.4,5.5l3.5-0.1l3.5-2l3.3-2.6l3.5-2.1l3.4-9.1l3.5-6.3l3.4-5.1l3.5-1l3.5,5.9l3.4,3.8l3.5,10.3
		l3.4,4.7l3.5,1.7l3.5,1.6l3.2-4.1l3.5-8.6l3.4-8.6l3.5-4.1l3.4-2.8l3.5,2.6l3.5,4.8l3.4,8.6l3.5,10.9l3.4,0.6l3.5-0.3l3.5-1.5
		l3.2-4.1l3.5,1.2v19.5h-3.5h-3.2h-3.5h-3.5h-3.4h-3.5h-3.4h-3.5h-3.5h-3.4h-3.5H342h-3.5h-3.2h-3.5h-3.5h-3.4h-3.5H321h-3.5H314
		h-3.4h-3.5h-3.4h-3.5h-3.3H293h-3.5h-3.4h-3.5h-3.4h-3.5H272h-3.4H265h-3.4H258h-3.2h-3.5h-3.5h-3.4h-3.5h-3.4H234h-3.5h-3.4h-3.5
		h-3.4h-3.5h-3.2H210h-4h-3.4H199h-3.4H192h-3.5H185h-3.5h-3.4h-3.5h-3.2h-3.5h-3.5H161h-3.5h-3.4h-3.5h-3.5h-3.4h-3.5h-3.4h-3.5
		H130h-3.5H123h-3.4h-3.5h-3.4h-3.5h-3.5h-3.4h-3.5h-3.4h-3.5h-3.2h-3.5h-3.5h-3.4h-3.5h-3.4h-3.5h-3.5H61v-37.6L59.6,660.7
		L59.6,660.7z"/>
	<path class="st9" d="M59.6,660.7l3.4-3.5l3.5,3.6l3.5,4.3l3.4,5.6l3.5,9.5l3.4,2.8l3.5-0.2l3.5,1.1l3.2-5.9l3.5-1.1l3.4-3.3
		l3.5-3.9l3.4-3.6l3.5,0.6l3.5,2.9l3.4,3.6l3.5,8.2l3.4,2.3l3.5,0.4l3.5,0.5l3.3-1l3.5-4.8l3.4-6.4l3.5-8.4l3.4-4.8h3.5l3.5,5.5
		l3.4,10.2l3.5,7.7l3.4,1l3.5,0.5l3.5,1.8l3.2-2.6l3.5-0.8l3.4-14.2l3.5-6l3.4-6.6l3.5,1l3.5,5.8l3.4,4.9l3.5,13.6l3.4,1.5l3.5,1.3
		l3.5-0.3l3.2-0.3l3.5-3.1l3.4-11l3.5-6.7l3.4-4.4l3.5,5.1l3.5,4.9l3.4,4.2l3.5,6.4l3.4,5.9l3.5,0.7l3.5,1.8l3.2-1.3l3.5-3.7
		l3.4-6.5l3.5-6.3l3.4-4.4l3.5-1.6l3.5,5.3l3.4,4.5l3.5,6l3.4,5.5l3.5-0.1l3.5-2l3.3-2.6l3.5-2.1l3.4-9.1l3.5-6.3l3.4-5.1l3.5-1
		l3.5,5.9l3.4,3.8l3.5,10.3l3.4,4.7l3.5,1.7l3.5,1.6l3.2-4.1l3.5-8.6l3.4-8.6l3.5-4.1l3.4-2.8l3.5,2.6l3.5,4.8l3.4,8.6l3.5,10.9
		l3.4,0.6l3.5-0.3l3.5-1.5l3.2-4.1l3.5,1.2"/>
	<path pointer-events="none" class="st3" d="M223.3,481.9L223.3,481.9L223.3,481.9L223.3,481.9z"/>
	<text transform="matrix(1.2141 0 0 1 153.5605 489.3145)" class="st10 st11">Sacramento River</text>
	<path pointer-events="none" class="st3" d="M408.7,697.9L408.7,697.9L408.7,697.9L408.7,697.9z"/>
	<path pointer-events="none" class="st3" d="M408.7,495.7L408.7,495.7L408.7,495.7L408.7,495.7z"/>
	<line class="st7" x1="408.7" y1="697.9" x2="736" y2="697.9"/>
	<line class="st7" x1="408.7" y1="664.2" x2="736" y2="664.2"/>
	<line class="st7" x1="408.7" y1="630.5" x2="736" y2="630.5"/>
	<line class="st7" x1="408.7" y1="596.8" x2="736" y2="596.8"/>
	<line class="st7" x1="408.7" y1="563.1" x2="736" y2="563.1"/>
	<line class="st7" x1="408.7" y1="529.4" x2="736" y2="529.4"/>
	
		<linearGradient id="SVGID_00000163794626135494108460000015441707328909883800_" gradientUnits="userSpaceOnUse" x1="-362.1895" y1="-44.2856" x2="-362.1895" y2="-43.6115" gradientTransform="matrix(400 0 0 -70.8582 145445.9062 -2440.3887)">
		<stop  offset="0" style="stop-color:#9CC8E2"/>
		<stop  offset="1" style="stop-color:#3887C0"/>
	</linearGradient>
	<path style="opacity:0.7;fill:url(#SVGID_00000163794626135494108460000015441707328909883800_);enable-background:new    ;" d="
		M408.2,655.4l3.4-5.6l3.5,2l3.5,4.5l3.4,2.4l3.5,8.3l3.4,4.2l3.5-2.2l3.5,2.1l3.2-5.9l3.5,0.4l3.4-1.7l3.5-1.2l3.4-2.6l3.5-0.1
		l3.5,0.9l3.4,1.8l3.5,7.7l3.4,1.6l3.5,0.6l3.5,0.6l3.3-1.7l3.5-2.5l3.4-6.1l3.5-5.5l3.4-2.8l3.5,0.2l3.5,2.5l3.4,6.3l3.5,7l3.4,1.2
		l3.5,0.5l3.5,2.5l3.2-3.7l3.5-0.9l3.4-11.8l3.5-3.7l3.4-3.5l3.5,0.1l3.5,2.3l3.4,3.3l3.5,10.8l3.4,1l3.5,2.2l3.5-0.1l3.2-0.5
		l3.5-2.3l3.4-9.1l3.5-4.2l3.4-3.3l3.5,0.2l3.5,4l3.4,2.4l3.5,6l3.4,6.7l3.5,0.7l3.5,2.7l3.2-2.7l3.5-4.1l3.4-6.6l3.5-5.1l3.4-3.6
		l3.5-1l3.5,3.8l3.4,2l3.5,6.1l3.4,8.1l3.5,0.4l3.5-2.1l3.3-2.8l3.5-0.3l3.4-8.4l3.5-4.4l3.4-3.3l3.5,0.2l3.5,3.9l3.4,2.4l3.5,7.6
		l3.4,3.4l3.5,2.5l3.5,2.3l3.2-5.1l3.5-6l3.4-4.4l3.5-1.7l3.4-1.3l3.5,0.7l3.5,2.7l3.4,5.4l3.5,8l3.4,0.6l3.5,0.2l3.5-1.4l3.2-4.5
		l3.5,1.4v30.4h0.1h-3.2h-3.5h-3.5h-3.4h-3.5h-3.4H708h-3.5h-3.4h-3.5h-3.4h-3.5h-3.2H684h-4h-3.4H673h-3.4H666h-3.5H659h-3.5H652
		h-3.5h-3.3h-3.5h-3.5h-3.4h-3.5h-3.4h-3.5h-3.5h-3.4H614h-3.4h-3.5h-3.2h-3.5h-3.5h-3.4H590h-3.4h-3.5h-3.5h-3.4h-3.5h-3.4h-3.5
		h-3.2h-3.5h-3.5h-3.4h-3.5h-3.4h-3.5h-3.5h-3.4h-3.5H528h-3.5h-3.2h-3.5h-3.5h-3.4h-3.5H504h-3.5H497h-3.4h-3.5h-3.4h-3.5H478h-3.5
		H471h-3.4H464h-3.4H457h-3.5H450h-3.5H443h-3.5h-3.2h-3.5h-3.5h-3.4h-3.5H419h-3.5H412h-3.4v-42L408.2,655.4L408.2,655.4z"/>
	<path class="st9" d="M408.2,655.4l3.4-5.6l3.5,2l3.5,4.5l3.4,2.4l3.5,8.3l3.4,4.2l3.5-2.2l3.5,2.1l3.2-5.9l3.5,0.4l3.4-1.7l3.5-1.2
		l3.4-2.6l3.5-0.1l3.5,0.9l3.4,1.8l3.5,7.7l3.4,1.6l3.5,0.6l3.5,0.6l3.3-1.7l3.5-2.5l3.4-6.1l3.5-5.5l3.4-2.8l3.5,0.2l3.5,2.5
		l3.4,6.3l3.5,7l3.4,1.2l3.5,0.5l3.5,2.5l3.2-3.7l3.5-0.9l3.4-11.8l3.5-3.7l3.4-3.5l3.5,0.1l3.5,2.3l3.4,3.3l3.5,10.8l3.4,1l3.5,2.2
		l3.5-0.1l3.2-0.5l3.5-2.3l3.4-9.1l3.5-4.2l3.4-3.3l3.5,0.2l3.5,4l3.4,2.4l3.5,6l3.4,6.7l3.5,0.7l3.5,2.7l3.2-2.7l3.5-4.1l3.4-6.6
		l3.5-5.1l3.4-3.6l3.5-1l3.5,3.8l3.4,2l3.5,6.1l3.4,8.1l3.5,0.4l3.5-2.1l3.3-2.8l3.5-0.3l3.4-8.4l3.5-4.4l3.4-3.3l3.5,0.2l3.5,3.9
		l3.4,2.4l3.5,7.6l3.4,3.4l3.5,2.5l3.5,2.3l3.2-5.1l3.5-6l3.4-4.4l3.5-1.7l3.4-1.3l3.5,0.7l3.5,2.7l3.4,5.4l3.5,8l3.4,0.6l3.5,0.2
		l3.5-1.4l3.2-4.5l3.5,1.4"/>
	<path pointer-events="none" class="st3" d="M571.9,481.9L571.9,481.9L571.9,481.9L571.9,481.9z"/>
	<text transform="matrix(1.2141 0 0 1 500.5674 489.3145)" class="st10 st11">San Francisco Bay</text>
	<path pointer-events="none" class="st3" d="M60.1,929.8L60.1,929.8L60.1,929.8L60.1,929.8z"/>
	<path pointer-events="none" class="st3" d="M60.1,727.6L60.1,727.6L60.1,727.6L60.1,727.6z"/>
	<line class="st7" x1="60.1" y1="929.8" x2="387.4" y2="929.8"/>
	<line class="st7" x1="60.1" y1="896.1" x2="387.4" y2="896.1"/>
	<line class="st7" x1="60.1" y1="862.4" x2="387.4" y2="862.4"/>
	<line class="st7" x1="60.1" y1="828.7" x2="387.4" y2="828.7"/>
	<line class="st7" x1="60.1" y1="795" x2="387.4" y2="795"/>
	<line class="st7" x1="60.1" y1="761.3" x2="387.4" y2="761.3"/>
	
		<linearGradient id="SVGID_00000098183603205944715810000014882965155674228902_" gradientUnits="userSpaceOnUse" x1="-361.9962" y1="-80.43" x2="-361.9962" y2="-79.756" gradientTransform="matrix(400 0 0 -31.9815 145019.9062 -1642.8033)">
		<stop  offset="0" style="stop-color:#9CC8E2"/>
		<stop  offset="1" style="stop-color:#3887C0"/>
	</linearGradient>
	<path style="opacity:0.7;fill:url(#SVGID_00000098183603205944715810000014882965155674228902_);enable-background:new    ;" d="
		M59.6,909.8l3.4-1.9l3.5,1.7l3.5,2l3.4,2.5l3.5,5.1l3.4,1.9l3.5,0.1l3.5,0.5l3.2-3.3l3.5-1.1l3.4-1.1l3.5-1.7l3.4-1.2h3.5l3.5,1.5
		l3.4,1.9l3.5,4l3.4,0.7l3.5,0.5l3.5-0.1l3.3-0.7l3.5-1.9l3.4-3.2l3.5-3.2l3.4-1.9l3.5,0.1l3.5,2.3l3.4,3.4l3.5,3.8l3.4,1l3.5,0.3
		l3.5,0.8l3.2-1.4l3.5-1.2l3.4-5.9l3.5-1.9l3.4-2.4l3.5,0.1l3.5,2.7l3.4,1.8l3.5,4.9l3.4,1.8l3.5,0.7h3.5h3.2l3.5-1.6l3.4-4.5
		l3.5-2.2l3.4-1.7l3.5,0.3l3.5,2.4l3.4,1.9l3.5,3l3.4,2.7l3.5,0.3l3.5,0.8l3.2-1l3.5-2.7l3.4-2.5l3.5-2.4l3.4-1.3l3.5,0.1l3.5,1.9
		l3.4,1.8l3.5,2.5l3.4,2.7l3.5,0.3l3.5-0.9l3.3-1.1l3.5-0.8l3.4-4.3l3.5-1.6l3.4-1.6l3.5,0.2l3.5-0.9l3.4,1.6l3.5,4.1l3.4,2.1
		l3.5,0.8l3.5,0.7l3.2-2.3l3.5-3.7l3.4-2.5l3.5-2.3l3.4-1.3l3.5,0.7l3.5,2.1l3.4,3.8l3.5,4.2l3.4,1.1l3.5-0.1l3.5-0.6l3.2-2.1
		l3.5-0.8v12.7h-3.5h-3.2h-3.5h-3.5h-3.4h-3.5h-3.4h-3.5h-3.5h-3.4h-3.5H342h-3.5h-3.2h-3.5h-3.5h-3.4h-3.5H321h-3.5H314h-3.4h-3.5
		h-3.4h-3.5h-3.3H293h-3.5h-3.4h-3.5h-3.4h-3.5H272h-3.4H265h-3.4H258h-3.2h-3.5h-3.5h-3.4h-3.5h-3.4H234h-3.5h-3.4h-3.5h-3.4h-3.5
		h-3.2H210h-4h-3.4H199h-3.4H192h-3.5H185h-3.5h-3.4h-3.5h-3.2h-3.5h-3.5H161h-3.5h-3.4h-3.5h-3.5h-3.4h-3.5h-3.4h-3.5H130h-3.5H123
		h-3.4h-3.5h-3.4h-3.5h-3.5h-3.4h-3.5h-3.4h-3.5h-3.2h-3.5h-3.5h-3.4h-3.5h-3.4h-3.5h-3.5H61v-20L59.6,909.8L59.6,909.8z"/>
	<path class="st9" d="M59.6,909.8l3.4-1.9l3.5,1.7l3.5,2l3.4,2.5l3.5,5.1l3.4,1.9l3.5,0.1l3.5,0.5l3.2-3.3l3.5-1.1l3.4-1.1l3.5-1.7
		l3.4-1.2h3.5l3.5,1.5l3.4,1.9l3.5,4l3.4,0.7l3.5,0.5l3.5-0.1l3.3-0.7l3.5-1.9l3.4-3.2l3.5-3.2l3.4-1.9l3.5,0.1l3.5,2.3l3.4,3.4
		l3.5,3.8l3.4,1l3.5,0.3l3.5,0.8l3.2-1.4l3.5-1.2l3.4-5.9l3.5-1.9l3.4-2.4l3.5,0.1l3.5,2.7l3.4,1.8l3.5,4.9l3.4,1.8l3.5,0.7h3.5h3.2
		l3.5-1.6l3.4-4.5l3.5-2.2l3.4-1.7l3.5,0.3l3.5,2.4l3.4,1.9l3.5,3l3.4,2.7l3.5,0.3l3.5,0.8l3.2-1l3.5-2.7l3.4-2.5l3.5-2.4l3.4-1.3
		l3.5,0.1l3.5,1.9l3.4,1.8l3.5,2.5l3.4,2.7l3.5,0.3l3.5-0.9l3.3-1.1l3.5-0.8l3.4-4.3l3.5-1.6l3.4-1.6l3.5,0.2l3.5-0.9l3.4,1.6
		l3.5,4.1l3.4,2.1l3.5,0.8l3.5,0.7l3.2-2.3l3.5-3.7l3.4-2.5l3.5-2.3l3.4-1.3l3.5,0.7l3.5,2.1l3.4,3.8l3.5,4.2l3.4,1.1l3.5-0.1
		l3.5-0.6l3.2-2.1l3.5-0.8"/>
	<path pointer-events="none" class="st3" d="M223.3,713.8L223.3,713.8L223.3,713.8L223.3,713.8z"/>
	<text transform="matrix(1.2141 0 0 1 152.8711 721.1768)" class="st10 st11">San Joaquin River</text>
	<path pointer-events="none" class="st3" d="M408.7,929.8L408.7,929.8L408.7,929.8L408.7,929.8z"/>
	<path pointer-events="none" class="st3" d="M408.7,727.6L408.7,727.6L408.7,727.6L408.7,727.6z"/>
	<line class="st7" x1="408.7" y1="929.8" x2="736" y2="929.8"/>
	<line class="st7" x1="408.7" y1="896.1" x2="736" y2="896.1"/>
	<line class="st7" x1="408.7" y1="862.4" x2="736" y2="862.4"/>
	<line class="st7" x1="408.7" y1="828.7" x2="736" y2="828.7"/>
	<line class="st7" x1="408.7" y1="795" x2="736" y2="795"/>
	<line class="st7" x1="408.7" y1="761.3" x2="736" y2="761.3"/>
	
		<linearGradient id="SVGID_00000029732599859554529920000005170746086975510967_" gradientUnits="userSpaceOnUse" x1="-362.1895" y1="-19.3793" x2="-362.1895" y2="-18.7054" gradientTransform="matrix(400 0 0 -285.1516 145445.9062 -4596.585)">
		<stop  offset="0" style="stop-color:#9CC8E2"/>
		<stop  offset="1" style="stop-color:#3887C0"/>
	</linearGradient>
	<path style="opacity:0.7;fill:url(#SVGID_00000029732599859554529920000005170746086975510967_);enable-background:new    ;" d="
		M408.2,747l3.4-9.7l3.5,11.2l3.5,7.1l3.4,8.7l3.5,29.7l3.4,36.2l3.5-13.2l3.5,2l3.2-23.3l3.5-5.5l3.4,10.9l3.5-11.7l3.4,0.9
		l3.5-10.3l3.5,13.7l3.4,4.5l3.5,12.8l3.4,10.4l3.5,13.7l3.5-8.8l3.3-3.4l3.5-11l3.4-12.9l3.5-14.8l3.4-16.2l3.5-3.8l3.5,16l3.4,9.4
		l3.5,19.4l3.4,18.1l3.5,15.4l3.5,9l3.2-32.7l3.5-22.1l3.4-10.6l3.5-9l3.4-16l3.5,1.8l3.5,13.4l3.4,0.4l3.5,24.8l3.4,0.6l3.5,16.1
		l3.5,2.5l3.2,10.8l3.5-28.3l3.4-10l3.5-10.6l3.4-22.9l3.5,0.7l3.5,17.2l3.4,13.1l3.5,13.7l3.4,26.1l3.5,7.3l3.5,14.7l3.2-14.5
		l3.5-31.2l3.4,6.1l3.5-13.9l3.4-19.2l3.5-6.2l3.5,11.6l3.4,3.4l3.5,23.7l3.4,29.7l3.5-11.3l3.5-6.6l3.3,10.3l3.5-2.7l3.4-40.8
		l3.5-7.6l3.4-13.8l3.5-4.7l3.5,4.1l3.4,6.4l3.5,26.7l3.4,1.3l3.5,16.8l3.5,8.7l3.2-11.7l3.5-19.7l3.4-13.9l3.5-7.9l3.4-12.3
		l3.5-1.2l3.5,13l3.4,18.8l3.5,7.8l3.4,25l3.5-1.1l3.5-5l3.2-15l3.5,5.2v119h0.1h-3.2h-3.5h-3.5h-3.4h-3.5h-3.4H708h-3.5h-3.4h-3.5
		h-3.4h-3.5h-3.2H684h-4h-3.4H673h-3.4H666h-3.5H659h-3.5H652h-3.5h-3.3h-3.5h-3.5h-3.4h-3.5h-3.4h-3.5h-3.5h-3.4H614h-3.4h-3.5
		h-3.2h-3.5h-3.5h-3.4H590h-3.4h-3.5h-3.5h-3.4h-3.5h-3.4h-3.5h-3.2h-3.5h-3.5h-3.4h-3.5h-3.4h-3.5h-3.5h-3.4h-3.5H528h-3.5h-3.2
		h-3.5h-3.5h-3.4h-3.5H504h-3.5H497h-3.4h-3.5h-3.4h-3.5H478h-3.5H471h-3.4H464h-3.4H457h-3.5H450h-3.5H443h-3.5h-3.2h-3.5h-3.5
		h-3.4h-3.5H419h-3.5H412h-3.4V747H408.2z"/>
	<path class="st9" d="M408.2,747l3.4-9.7l3.5,11.2l3.5,7.1l3.4,8.7l3.5,29.7l3.4,36.2l3.5-13.2l3.5,2l3.2-23.3l3.5-5.5l3.4,10.9
		l3.5-11.7l3.4,0.9l3.5-10.3l3.5,13.7l3.4,4.5l3.5,12.8l3.4,10.4l3.5,13.7l3.5-8.8l3.3-3.4l3.5-11l3.4-12.9l3.5-14.8l3.4-16.2
		l3.5-3.8l3.5,16l3.4,9.4l3.5,19.4l3.4,18.1l3.5,15.4l3.5,9l3.2-32.7l3.5-22.1l3.4-10.6l3.5-9l3.4-16l3.5,1.8l3.5,13.4l3.4,0.4
		l3.5,24.8l3.4,0.6l3.5,16.1l3.5,2.5l3.2,10.8l3.5-28.3l3.4-10l3.5-10.6l3.4-22.9l3.5,0.7l3.5,17.2l3.4,13.1l3.5,13.7l3.4,26.1
		l3.5,7.3l3.5,14.7l3.2-14.5l3.5-31.2l3.4,6.1l3.5-13.9l3.4-19.2l3.5-6.2l3.5,11.6l3.4,3.4l3.5,23.7l3.4,29.7l3.5-11.3l3.5-6.6
		l3.3,10.3l3.5-2.7l3.4-40.8l3.5-7.6l3.4-13.8l3.5-4.7l3.5,4.1l3.4,6.4l3.5,26.7l3.4,1.3l3.5,16.8l3.5,8.7l3.2-11.7l3.5-19.7
		l3.4-13.9l3.5-7.9l3.4-12.3l3.5-1.2l3.5,13l3.4,18.8l3.5,7.8l3.4,25l3.5-1.1l3.5-5l3.2-15l3.5,5.2"/>
	<path pointer-events="none" class="st3" d="M571.9,713.8L571.9,713.8L571.9,713.8L571.9,713.8z"/>
	<text transform="matrix(1.2141 0 0 1 512.3887 721.1768)" class="st10 st11">South Coast</text>
	<path pointer-events="none" class="st3" d="M60.1,1161.7L60.1,1161.7L60.1,1161.7L60.1,1161.7z"/>
	<path pointer-events="none" class="st3" d="M60.1,959.5L60.1,959.5L60.1,959.5L60.1,959.5z"/>
	<line class="st7" x1="60.1" y1="1161.7" x2="387.4" y2="1161.7"/>
	<line class="st7" x1="60.1" y1="1128" x2="387.4" y2="1128"/>
	<line class="st7" x1="60.1" y1="1094.3" x2="387.4" y2="1094.3"/>
	<line class="st7" x1="60.1" y1="1060.6" x2="387.4" y2="1060.6"/>
	<line class="st7" x1="60.1" y1="1026.9" x2="387.4" y2="1026.9"/>
	<line class="st7" x1="60.1" y1="993.2" x2="387.4" y2="993.2"/>
	
		<linearGradient id="SVGID_00000163750938631186834550000004959777002094272129_" gradientUnits="userSpaceOnUse" x1="-361.9962" y1="-142.4971" x2="-361.9962" y2="-141.8231" gradientTransform="matrix(400 0 0 -15.952 145019.9062 -1111.782)">
		<stop  offset="0" style="stop-color:#9CC8E2"/>
		<stop  offset="1" style="stop-color:#3887C0"/>
	</linearGradient>
	<path style="opacity:0.7;fill:url(#SVGID_00000163750938631186834550000004959777002094272129_);enable-background:new    ;" d="
		M59.6,1151.1l3.4-0.5l3.5,0.6l3.5,2.4l3.4,0.2l3.5,1.7l3.4,1.7l3.5,0.1h3.5l3.2-1.6l3.5-0.9l3.4-0.5l3.5-0.5l3.4,0.2l3.5-1l3.5,1.3
		l3.4,1l3.5,1.1l3.4,0.7l3.5,0.4h3.5l3.3-0.7l3.5-0.9l3.4-1.4l3.5-1.5l3.4-0.9l3.5,0.4l3.5,0.8l3.4,1.7l3.5,1.3l3.4,0.8l3.5,0.6
		l3.5,0.4l3.2-1.4l3.5-1.3l3.4-0.9l3.5-1.2l3.4-2l3.5,1l3.5,0.9l3.4,1.2l3.5,1.6l3.4,1.3l3.5-0.2l3.5-0.1h3.2l3.5-1.3l3.4-1.3
		l3.5-1.7l3.4-0.9l3.5-0.2l3.5,1.8l3.4,1.5l3.5,1.8l3.4,1.2l3.5-0.2l3.5,0.3l3.2-0.7l3.5-1.6l3.4-0.6l3.5-1.8l3.4-0.8l3.5-1l3.5,1.9
		l3.4,1.4l3.5,1.2l3.4,1.7h3.5l3.5-0.8l3.3,0.3l3.5-0.5l3.4-3l3.5-0.5l3.4-1.1l3.5-0.4l3.5,0.6l3.4,1.7l3.5,2.1l3.4,0.5l3.5,0.7
		l3.5,0.4l3.2-1.1l3.5-1.8l3.4-0.6l3.5-1.7l3.4-0.5l3.5,0.1l3.5,0.9l3.4,2.6l3.5,0.4l3.4,1.1l3.5,0.3h3.5l3.2-1.2l3.5-0.6v6h-3.5
		h-3.2h-3.5h-3.5h-3.4h-3.5h-3.4h-3.5h-3.5h-3.4h-3.5H342h-3.5h-3.2h-3.5h-3.5h-3.4h-3.5H321h-3.5H314h-3.4h-3.5h-3.4h-3.5h-3.3H293
		h-3.5h-3.4h-3.5h-3.4h-3.5H272h-3.4H265h-3.4H258h-3.2h-3.5h-3.5h-3.4h-3.5h-3.4H234h-3.5h-3.4h-3.5h-3.4h-3.5h-3.2H210h-4h-3.4
		H199h-3.4H192h-3.5H185h-3.5h-3.4h-3.5h-3.2h-3.5h-3.5H161h-3.5h-3.4h-3.5h-3.5h-3.4h-3.5h-3.4h-3.5H130h-3.5H123h-3.4h-3.5h-3.4
		h-3.5h-3.5h-3.4h-3.5h-3.4h-3.5h-3.2h-3.5h-3.5h-3.4h-3.5h-3.4h-3.5h-3.5H61v-10.5H59.6z"/>
	<path class="st9" d="M59.6,1151.1l3.4-0.5l3.5,0.6l3.5,2.4l3.4,0.2l3.5,1.7l3.4,1.7l3.5,0.1h3.5l3.2-1.6l3.5-0.9l3.4-0.5l3.5-0.5
		l3.4,0.2l3.5-1l3.5,1.3l3.4,1l3.5,1.1l3.4,0.7l3.5,0.4h3.5l3.3-0.7l3.5-0.9l3.4-1.4l3.5-1.5l3.4-0.9l3.5,0.4l3.5,0.8l3.4,1.7
		l3.5,1.3l3.4,0.8l3.5,0.6l3.5,0.4l3.2-1.4l3.5-1.3l3.4-0.9l3.5-1.2l3.4-2l3.5,1l3.5,0.9l3.4,1.2l3.5,1.6l3.4,1.3l3.5-0.2l3.5-0.1
		h3.2l3.5-1.3l3.4-1.3l3.5-1.7l3.4-0.9l3.5-0.2l3.5,1.8l3.4,1.5l3.5,1.8l3.4,1.2l3.5-0.2l3.5,0.3l3.2-0.7l3.5-1.6l3.4-0.6l3.5-1.8
		l3.4-0.8l3.5-1l3.5,1.9l3.4,1.4l3.5,1.2l3.4,1.7h3.5l3.5-0.8l3.3,0.3l3.5-0.5l3.4-3l3.5-0.5l3.4-1.1l3.5-0.4l3.5,0.6l3.4,1.7
		l3.5,2.1l3.4,0.5l3.5,0.7l3.5,0.4l3.2-1.1l3.5-1.8l3.4-0.6l3.5-1.7l3.4-0.5l3.5,0.1l3.5,0.9l3.4,2.6l3.5,0.4l3.4,1.1l3.5,0.3h3.5
		l3.2-1.2l3.5-0.6"/>
	<path pointer-events="none" class="st3" d="M223.3,945.6L223.3,945.6L223.3,945.6L223.3,945.6z"/>
	<text transform="matrix(1.2141 0 0 1 157.4111 953.0376)" class="st10 st11">South Lahontan</text>
	<path pointer-events="none" class="st3" d="M408.7,1161.7L408.7,1161.7L408.7,1161.7L408.7,1161.7z"/>
	<path pointer-events="none" class="st3" d="M408.7,959.5L408.7,959.5L408.7,959.5L408.7,959.5z"/>
	<line class="st7" x1="408.7" y1="1161.7" x2="736" y2="1161.7"/>
	<line class="st7" x1="408.7" y1="1128" x2="736" y2="1128"/>
	<line class="st7" x1="408.7" y1="1094.3" x2="736" y2="1094.3"/>
	<line class="st7" x1="408.7" y1="1060.6" x2="736" y2="1060.6"/>
	<line class="st7" x1="408.7" y1="1026.9" x2="736" y2="1026.9"/>
	<line class="st7" x1="408.7" y1="993.2" x2="736" y2="993.2"/>
	
		<linearGradient id="SVGID_00000163053688151057324100000005170033790473942921_" gradientUnits="userSpaceOnUse" x1="-362.1895" y1="-56.2843" x2="-362.1895" y2="-55.6102" gradientTransform="matrix(400 0 0 -46.7758 145445.9062 -1471.4077)">
		<stop  offset="0" style="stop-color:#9CC8E2"/>
		<stop  offset="1" style="stop-color:#3887C0"/>
	</linearGradient>
	<path style="opacity:0.7;fill:url(#SVGID_00000163053688151057324100000005170033790473942921_);enable-background:new    ;" d="
		M408.2,1132.1l3.4-2.3l3.5,2.7l3.5,2.7l3.4,3.6l3.5,7.1l3.4,2.6l3.5,1l3.5,1l3.2-4.2l3.5-2.9l3.4-1.4l3.5-3.1l3.4-1.7l3.5-0.3
		l3.5,2.4l3.4,2.9l3.5,5.7l3.4,1.6l3.5,1l3.5,0.4l3.3-1.7l3.5-3.2l3.4-4.6l3.5-4.5l3.4-3.1l3.5-0.1l3.5,3.1l3.4,3.4l3.5,5.5l3.4,3
		l3.5,1.6l3.5,1.2l3.2-2.9l3.5-3.1l3.4-6.6l3.5-4.5l3.4-2.2l3.5-0.2l3.5,4.1l3.4,3.1l3.5,4.9l3.4,2.8l3.5,2l3.5,0.2l3.2-0.3l3.5-3.6
		l3.4-6.5l3.5-3.3l3.4-2.5l3.5,0.2l3.5,3.7l3.4,3.3l3.5,4.5l3.4,4.7l3.5,0.9l3.5,1.5l3.2-1.7l3.5-5.1l3.4-2.6l3.5-4.4l3.4-3.7
		l3.5-0.7l3.5,3.4l3.4,3.2l3.5,4.4l3.4,4.8l3.5,1l3.5-1.2l3.3-1.3l3.5-0.7l3.4-7.4l3.5-3.8l3.4-2.5h3.5l3.5,2.8l3.4,2.5l3.5,5.4
		l3.4,2.9l3.5,1.1l3.5,0.9l3.2-3.1l3.5,1.2l3.4-10.6l3.5-2.9l3.4-2.4l3.5,0.9l3.5,2.8l3.4,5l3.5,5.8l3.4,2.7l3.5,0.8l3.5-0.8
		l3.2-2.6l3.5-2.3v17.4h0.1h-3.2h-3.5h-3.5h-3.4h-3.5h-3.4H708h-3.5h-3.4h-3.5h-3.4h-3.5h-3.2H684h-4h-3.4H673h-3.4H666h-3.5H659
		h-3.5H652h-3.5h-3.3h-3.5h-3.5h-3.4h-3.5h-3.4h-3.5h-3.5h-3.4H614h-3.4h-3.5h-3.2h-3.5h-3.5h-3.4H590h-3.4h-3.5h-3.5h-3.4h-3.5
		h-3.4h-3.5h-3.2h-3.5h-3.5h-3.4h-3.5h-3.4h-3.5h-3.5h-3.4h-3.5H528h-3.5h-3.2h-3.5h-3.5h-3.4h-3.5H504h-3.5H497h-3.4h-3.5h-3.4
		h-3.5H478h-3.5H471h-3.4H464h-3.4H457h-3.5H450h-3.5H443h-3.5h-3.2h-3.5h-3.5h-3.4h-3.5H419h-3.5H412h-3.4v-28.8L408.2,1132.1
		L408.2,1132.1z"/>
	<path class="st9" d="M408.2,1132.1l3.4-2.3l3.5,2.7l3.5,2.7l3.4,3.6l3.5,7.1l3.4,2.6l3.5,1l3.5,1l3.2-4.2l3.5-2.9l3.4-1.4l3.5-3.1
		l3.4-1.7l3.5-0.3l3.5,2.4l3.4,2.9l3.5,5.7l3.4,1.6l3.5,1l3.5,0.4l3.3-1.7l3.5-3.2l3.4-4.6l3.5-4.5l3.4-3.1l3.5-0.1l3.5,3.1l3.4,3.4
		l3.5,5.5l3.4,3l3.5,1.6l3.5,1.2l3.2-2.9l3.5-3.1l3.4-6.6l3.5-4.5l3.4-2.2l3.5-0.2l3.5,4.1l3.4,3.1l3.5,4.9l3.4,2.8l3.5,2l3.5,0.2
		l3.2-0.3l3.5-3.6l3.4-6.5l3.5-3.3l3.4-2.5l3.5,0.2l3.5,3.7l3.4,3.3l3.5,4.5l3.4,4.7l3.5,0.9l3.5,1.5l3.2-1.7l3.5-5.1l3.4-2.6
		l3.5-4.4l3.4-3.7l3.5-0.7l3.5,3.4l3.4,3.2l3.5,4.4l3.4,4.8l3.5,1l3.5-1.2l3.3-1.3l3.5-0.7l3.4-7.4l3.5-3.8l3.4-2.5h3.5l3.5,2.8
		l3.4,2.5l3.5,5.4l3.4,2.9l3.5,1.1l3.5,0.9l3.2-3.1l3.5,1.2l3.4-10.6l3.5-2.9l3.4-2.4l3.5,0.9l3.5,2.8l3.4,5l3.5,5.8l3.4,2.7
		l3.5,0.8l3.5-0.8l3.2-2.6l3.5-2.3"/>
	<path pointer-events="none" class="st3" d="M571.9,945.6L571.9,945.6L571.9,945.6L571.9,945.6z"/>
	<text transform="matrix(1.2141 0 0 1 513.4482 953.0376)" class="st10 st11">Tulare Lake</text>
	<rect x="166.2" y="200.5" class="st3" width="102" height="10.5"/>
	<text transform="matrix(1 0 0 1 166.15 209.02)" class="st21 st22 st6">Lowest: Feb 2017</text>
	<text transform="matrix(1 0 0 1 166.15 209.02)" class="st23 st22 st6">Lowest: Feb 2017</text>
	<g>
		<line class="st3" x1="180.3" y1="214" x2="170.6" y2="220.7"/>
		<g>
			<line class="st24" x1="180.3" y1="214" x2="175.6" y2="217.3"/>
			<g>
				<path d="M170.6,220.7c1.7-2.5,3.6-6,4.3-8.8l1.3,4.9l4.1,2.9C177.4,219.4,173.5,220,170.6,220.7z"/>
			</g>
		</g>
	</g>
	<rect x="61.9" y="175" class="st3" width="102" height="10.5"/>
	<text transform="matrix(1 0 0 1 61.85 183.5259)" class="st21 st22 st6">Highest: July 2014</text>
	<text transform="matrix(1 0 0 1 61.85 183.5259)" class="st23 st22 st6">Highest: July 2014</text>
	<g>
		<line class="st3" x1="75.1" y1="192.5" x2="61.9" y2="215.4"/>
		<g>
			<line class="st24" x1="75.1" y1="192.5" x2="64.9" y2="210.1"/>
			<g>
				<path d="M61.9,215.4c0.5-3,0.7-6.9,0.2-9.8l3.3,3.9l5,0.9C67.5,211.3,64.2,213.4,61.9,215.4z"/>
			</g>
		</g>
	</g>
	<rect x="512.4" y="195.3" class="st3" width="102" height="10.5"/>
	<text transform="matrix(1 0 0 1 512.3892 203.7856)" class="st21 st22 st6">Lowest: Jan 2017</text>
	<text transform="matrix(1 0 0 1 512.3892 203.7856)" class="st23 st22 st6">Lowest: Jan 2017</text>
	<g>
		<line class="st3" x1="524.8" y1="209.1" x2="515.3" y2="225.6"/>
		<g>
			<line class="st24" x1="524.8" y1="209.1" x2="518.3" y2="220.3"/>
			<g>
				<path d="M515.3,225.6c0.5-3,0.7-6.9,0.2-9.8l3.3,3.9l5,0.9C520.9,221.5,517.6,223.6,515.3,225.6z"/>
			</g>
		</g>
	</g>
	<rect x="404.7" y="175" class="st3" width="102" height="10.5"/>
	<text transform="matrix(1 0 0 1 404.7362 183.5259)" class="st21 st22 st6">Highest: July 2014</text>
	<text transform="matrix(1 0 0 1 404.7362 183.5259)" class="st23 st22 st6">Highest: July 2014</text>
	<g>
		<line class="st3" x1="430.5" y1="193.7" x2="417.3" y2="216.6"/>
		<g>
			<line class="st24" x1="430.5" y1="193.7" x2="420.3" y2="211.3"/>
			<g>
				<path d="M417.3,216.6c0.5-3,0.7-6.9,0.2-9.8l3.3,3.9l5,0.9C422.9,212.5,419.6,214.6,417.3,216.6z"/>
			</g>
		</g>
	</g>
	<rect x="249.9" y="438.7" class="st3" width="102" height="10.5"/>
	<text transform="matrix(1 0 0 1 249.8584 447.2185)" class="st21 st22 st6">Lowest: Feb 2019</text>
	<text transform="matrix(1 0 0 1 249.8584 447.2185)" class="st23 st22 st6">Lowest: Feb 2019</text>
	<g>
		<line class="st3" x1="263.8" y1="454.6" x2="254" y2="461.3"/>
		<g>
			<line class="st24" x1="263.8" y1="454.6" x2="259" y2="457.8"/>
			<g>
				<path d="M254,461.3c1.7-2.5,3.6-6,4.3-8.8l1.3,4.9l4.1,2.9C260.9,460,257,460.5,254,461.3z"/>
			</g>
		</g>
	</g>
	<rect x="149.7" y="422.8" class="st3" width="102" height="10.5"/>
	<text transform="matrix(1 0 0 1 149.6581 431.3555)" class="st21 st22 st6">Highest: July 2017</text>
	<text transform="matrix(1 0 0 1 149.6581 431.3555)" class="st23 st22 st6">Highest: July 2017</text>
	<g>
		<line class="st3" x1="203.3" y1="436.5" x2="188.9" y2="458.6"/>
		<g>
			<line class="st24" x1="203.3" y1="436.5" x2="192.2" y2="453.6"/>
			<g>
				<path d="M188.9,458.6c0.7-3,1.1-6.9,0.6-9.8l3.1,4l4.9,1.1C194.8,454.8,191.4,456.8,188.9,458.6z"/>
			</g>
		</g>
	</g>
	<rect x="601.4" y="440" class="st3" width="102" height="10.5"/>
	<text transform="matrix(1 0 0 1 601.3633 448.4797)" class="st21 st22 st6">Lowest: Feb 2019</text>
	<text transform="matrix(1 0 0 1 601.3633 448.4797)" class="st23 st22 st6">Lowest: Feb 2019</text>
	<g>
		<line class="st3" x1="614.9" y1="454.6" x2="605.1" y2="461.3"/>
		<g>
			<line class="st24" x1="614.9" y1="454.6" x2="610.1" y2="457.8"/>
			<g>
				<path d="M605.1,461.3c1.7-2.5,3.6-6,4.3-8.8l1.3,4.9l4.1,2.9C612,460,608.1,460.5,605.1,461.3z"/>
			</g>
		</g>
	</g>
	<rect x="500" y="425.4" class="st3" width="102" height="10.5"/>
	<text transform="matrix(1 0 0 1 500 433.8778)" class="st21 st22 st6">Highest: July 2017</text>
	<text transform="matrix(1 0 0 1 500 433.8778)" class="st23 st22 st6">Highest: July 2017</text>
	<g>
		<line class="st3" x1="526.4" y1="436.9" x2="533.9" y2="462.2"/>
		<g>
			<line class="st24" x1="526.4" y1="436.9" x2="532.2" y2="456.4"/>
			<g>
				<path d="M533.9,462.2c-1.8-2.4-4.5-5.3-7-6.9l5,0.3l4.1-3C534.8,455.3,534.1,459.2,533.9,462.2z"/>
			</g>
		</g>
	</g>
	<rect x="242.3" y="642.6" class="st3" width="102" height="10.5"/>
	<text transform="matrix(1 0 0 1 242.3 651.1531)" class="st21 st22 st6">Lowest: Feb 2019</text>
	<text transform="matrix(1 0 0 1 242.3 651.1531)" class="st23 st22 st6">Lowest: Feb 2019</text>
	<g>
		<line class="st3" x1="262.7" y1="675.5" x2="253" y2="682.2"/>
		<g>
			<line class="st24" x1="262.7" y1="675.5" x2="257.9" y2="678.8"/>
			<g>
				<path d="M253,682.2c1.7-2.5,3.6-6,4.3-8.8l1.3,4.9l4.1,2.9C259.8,680.9,255.9,681.5,253,682.2z"/>
			</g>
		</g>
	</g>
	<rect x="158.8" y="620.4" class="st3" width="102" height="10.5"/>
	<text transform="matrix(1 0 0 1 158.8 628.894)" class="st21 st22 st6">Highest: July 2017</text>
	<text transform="matrix(1 0 0 1 158.8 628.894)" class="st23 st22 st6">Highest: July 2017</text>
	<g>
		<line class="st3" x1="203.6" y1="630.5" x2="190.4" y2="653.4"/>
		<g>
			<line class="st24" x1="203.6" y1="630.5" x2="193.4" y2="648.1"/>
			<g>
				<path d="M190.4,653.4c0.5-3,0.7-6.9,0.2-9.8l3.3,3.9l5,0.9C196,649.3,192.7,651.4,190.4,653.4z"/>
			</g>
		</g>
	</g>
	<rect x="500" y="639.2" class="st3" width="102" height="10.5"/>
	<text transform="matrix(1 0 0 1 499.9995 647.7357)" class="st21 st22 st6">Lowest: Feb 2017</text>
	<text transform="matrix(1 0 0 1 499.9995 647.7357)" class="st23 st22 st6">Lowest: Feb 2017</text>
	<g>
		<line class="st3" x1="524.1" y1="658.3" x2="519.6" y2="669.2"/>
		<g>
			<line class="st24" x1="524.1" y1="658.3" x2="521.9" y2="663.6"/>
			<g>
				<path d="M519.6,669.2c0.1-3-0.2-7-1.1-9.7l3.7,3.4l5.1,0.2C524.6,664.4,521.6,667,519.6,669.2z"/>
			</g>
		</g>
	</g>
	<rect x="405.1" y="617.1" class="st3" width="102" height="10.5"/>
	<text transform="matrix(1 0 0 1 405.1215 625.6079)" class="st21 st22 st6">Highest: July 2014</text>
	<text transform="matrix(1 0 0 1 405.1215 625.6079)" class="st23 st22 st6">Highest: July 2014</text>
	<g>
		<line class="st3" x1="421.4" y1="630.8" x2="412.1" y2="647.5"/>
		<g>
			<line class="st24" x1="421.4" y1="630.8" x2="415.1" y2="642.2"/>
			<g>
				<path d="M412.1,647.5c0.5-3,0.6-6.9,0-9.8l3.3,3.8l5,0.8C417.7,643.3,414.4,645.5,412.1,647.5z"/>
			</g>
		</g>
	</g>
	<rect x="237.2" y="897.6" class="st3" width="102" height="10.5"/>
	<text transform="matrix(1 0 0 1 237.15 906.1358)" class="st21 st22 st6">Lowest: Feb 2019</text>
	<text transform="matrix(1 0 0 1 237.15 906.1358)" class="st23 st22 st6">Lowest: Feb 2019</text>
	<g>
		<line class="st3" x1="260.8" y1="907.8" x2="254.9" y2="918.1"/>
		<g>
			<line class="st24" x1="260.8" y1="907.8" x2="257.9" y2="912.8"/>
			<g>
				<path d="M254.9,918.1c0.5-3,0.7-6.9,0.2-9.8l3.3,3.9l5,0.9C260.5,914,257.2,916.1,254.9,918.1z"/>
			</g>
		</g>
	</g>
	<rect x="61.9" y="877.2" class="st3" width="102" height="10.5"/>
	<text transform="matrix(1 0 0 1 61.85 885.7604)" class="st21 st22 st6">Highest: July 2014</text>
	<text transform="matrix(1 0 0 1 61.85 885.7604)" class="st23 st22 st6">Highest: July 2014</text>
	<g>
		<line class="st3" x1="70.6" y1="887.8" x2="61.4" y2="904.4"/>
		<g>
			<line class="st24" x1="70.6" y1="887.8" x2="64.3" y2="899.2"/>
			<g>
				<path d="M61.4,904.4c0.5-3,0.6-6.9,0-9.8l3.3,3.8l5,0.8C66.9,900.3,63.7,902.5,61.4,904.4z"/>
			</g>
		</g>
	</g>
	<rect x="395.6" y="715.2" class="st3" width="102" height="10.5"/>
	<text transform="matrix(1 0 0 1 395.6396 723.7646)" class="st21 st22 st6">Highest: July 2014</text>
	<text transform="matrix(1 0 0 1 395.6396 723.7646)" class="st23 st22 st6">Highest: July 2014</text>
	<g>
		<line class="st3" x1="422.9" y1="727" x2="413.1" y2="733.7"/>
		<g>
			<line class="st24" x1="422.9" y1="727" x2="418.1" y2="730.3"/>
			<g>
				<path d="M413.1,733.7c1.7-2.5,3.6-6,4.3-8.8l1.3,4.9l4.1,2.9C420,732.4,416.1,732.9,413.1,733.7z"/>
			</g>
		</g>
	</g>
	<rect x="583.6" y="732.1" class="st3" width="102" height="10.5"/>
	<text transform="matrix(1 0 0 1 583.5895 740.5856)" class="st21 st22 st6">Lowest: Feb 2019</text>
	<text transform="matrix(1 0 0 1 583.5895 740.5856)" class="st23 st22 st6">Lowest: Feb 2019</text>
	<rect x="166.2" y="1125.1" class="st3" width="102" height="10.5"/>
	<text transform="matrix(1 0 0 1 166.15 1133.5996)" class="st21 st22 st6">Lowest: Feb 2017</text>
	<text transform="matrix(1 0 0 1 166.15 1133.5996)" class="st23 st22 st6">Lowest: Feb 2017</text>
	<g>
		<line class="st3" x1="171.9" y1="1135.3" x2="170.8" y2="1154.4"/>
		<g>
			<line class="st24" x1="171.9" y1="1135.3" x2="171.2" y2="1148.3"/>
			<g>
				<path d="M170.8,1154.4c-0.9-2.9-2.5-6.5-4.2-8.8l4.6,2l4.8-1.4C174,1148.2,172,1151.6,170.8,1154.4z"/>
			</g>
		</g>
	</g>
	<rect x="66.6" y="1113.6" class="st3" width="102" height="10.5"/>
	<text transform="matrix(1 0 0 1 66.6348 1122.1666)" class="st21 st22 st6">Highest: July 2014</text>
	<text transform="matrix(1 0 0 1 66.6348 1122.1666)" class="st23 st22 st6">Highest: July 2014</text>
	<g>
		<line class="st3" x1="81.9" y1="1131.9" x2="60.3" y2="1146.7"/>
		<g>
			<line class="st24" x1="81.9" y1="1131.9" x2="65.3" y2="1143.3"/>
			<g>
				<path d="M60.3,1146.7c1.7-2.5,3.6-6,4.3-8.8l1.3,4.9l4.1,2.9C67.2,1145.5,63.3,1146,60.3,1146.7z"/>
			</g>
		</g>
	</g>
	<rect x="401" y="1092.3" class="st3" width="102" height="10.5"/>
	<text transform="matrix(1 0 0 1 401.05 1100.8104)" class="st21 st22 st6">Highest: July 2014</text>
	<text transform="matrix(1 0 0 1 401.05 1100.8104)" class="st23 st22 st6">Highest: July 2014</text>
	<g>
		<line class="st3" x1="422.2" y1="1105.3" x2="412.9" y2="1122"/>
		<g>
			<line class="st24" x1="422.2" y1="1105.3" x2="415.8" y2="1116.7"/>
			<g>
				<path d="M412.9,1122c0.5-3,0.6-6.9,0-9.8l3.3,3.8l5,0.8C418.5,1117.8,415.2,1120,412.9,1122z"/>
			</g>
		</g>
	</g>
	
		<rect x="645.9" y="1071.1" transform="matrix(1.541871e-03 -1 1 1.541871e-03 -471.9846 1771.5197)" class="st3" width="10.5" height="102"/>
	<text transform="matrix(1 0 0 1 600.1068 1125.3735)" class="st21 st22 st6">Lowest: Feb 2019</text>
	<text transform="matrix(1 0 0 1 600.1068 1125.3735)" class="st23 st22 st6">Lowest: Feb 2019</text>
	<g>
		<line class="st3" x1="607.2" y1="1127.2" x2="601.9" y2="1145.5"/>
		<g>
			<line class="st24" x1="607.2" y1="1127.2" x2="603.6" y2="1139.7"/>
			<g>
				<path d="M601.9,1145.5c-0.2-3-1-6.9-2.2-9.5l4.1,3l5-0.3C606.4,1140.2,603.7,1143.1,601.9,1145.5z"/>
			</g>
		</g>
	</g>
	<g>
		<g>
			<line class="st24" x1="630.3" y1="747.2" x2="609.9" y2="816.9"/>
			<g>
				<polygon points="607.9,823.7 606.8,813 610,816.4 614.6,815.3 				"/>
			</g>
		</g>
	</g>
</g>
<g id="ai2html-settings">
	<rect x="-450" y="-36.7" class="st3" width="450" height="454.7"/>
	<text transform="matrix(1 0 0 1 -450 -26.0645)" class="st21 st22" style="font-size:15px;">ai2html-settings</text>
	
		<text transform="matrix(1 0 0 1 -450 -26.0645)" class="st22" style="fill:none;stroke:#0C59FF;stroke-miterlimit:10; font-size:15px;">ai2html-settings</text>
	<text transform="matrix(1 0 0 1 -450 -7.0645)" class="st21 st22" style="font-size:15px;">settings_version: 0.112.0</text>
	
		<text transform="matrix(1 0 0 1 -450 -7.0645)" class="st22" style="fill:none;stroke:#0C59FF;stroke-miterlimit:10; font-size:15px;">settings_version: 0.112.0</text>
	<text transform="matrix(1 0 0 1 -450 11.9355)" class="st21 st22" style="font-size:15px;">image_format: auto</text>
	
		<text transform="matrix(1 0 0 1 -450 11.9355)" class="st22" style="fill:none;stroke:#0C59FF;stroke-miterlimit:10; font-size:15px;">image_format: auto</text>
	<text transform="matrix(1 0 0 1 -450 30.9355)" class="st21 st22" style="font-size:15px;">responsiveness: fixed</text>
	
		<text transform="matrix(1 0 0 1 -450 30.9355)" class="st22" style="fill:none;stroke:#0C59FF;stroke-miterlimit:10; font-size:15px;">responsiveness: fixed</text>
	<text transform="matrix(1 0 0 1 -450 49.9355)" class="st21 st22" style="font-size:15px;">output: one-file</text>
	
		<text transform="matrix(1 0 0 1 -450 49.9355)" class="st22" style="fill:none;stroke:#0C59FF;stroke-miterlimit:10; font-size:15px;">output: one-file</text>
	<text transform="matrix(1 0 0 1 -450 68.9355)" class="st21 st22" style="font-size:15px;">html_output_path: /ai2html-output/</text>
	
		<text transform="matrix(1 0 0 1 -450 68.9355)" class="st22" style="fill:none;stroke:#0C59FF;stroke-miterlimit:10; font-size:15px;">html_output_path: /ai2html-output/</text>
	<text transform="matrix(1 0 0 1 -450 87.9355)" class="st21 st22" style="font-size:15px;">html_output_extension: .html</text>
	
		<text transform="matrix(1 0 0 1 -450 87.9355)" class="st22" style="fill:none;stroke:#0C59FF;stroke-miterlimit:10; font-size:15px;">html_output_extension: .html</text>
	<text transform="matrix(1 0 0 1 -450 106.9355)" class="st21 st22" style="font-size:15px;">image_output_path: </text>
	
		<text transform="matrix(1 0 0 1 -450 106.9355)" class="st22" style="fill:none;stroke:#0C59FF;stroke-miterlimit:10; font-size:15px;">image_output_path: </text>
	<text transform="matrix(1 0 0 1 -450 125.9355)" class="st21 st22" style="font-size:15px;">local_preview_template: </text>
	
		<text transform="matrix(1 0 0 1 -450 125.9355)" class="st22" style="fill:none;stroke:#0C59FF;stroke-miterlimit:10; font-size:15px;">local_preview_template: </text>
	<text transform="matrix(1 0 0 1 -450 144.9355)" class="st21 st22" style="font-size:15px;">png_number_of_colors: 128</text>
	
		<text transform="matrix(1 0 0 1 -450 144.9355)" class="st22" style="fill:none;stroke:#0C59FF;stroke-miterlimit:10; font-size:15px;">png_number_of_colors: 128</text>
	<text transform="matrix(1 0 0 1 -450 163.9355)" class="st21 st22" style="font-size:15px;">jpg_quality: 60</text>
	
		<text transform="matrix(1 0 0 1 -450 163.9355)" class="st22" style="fill:none;stroke:#0C59FF;stroke-miterlimit:10; font-size:15px;">jpg_quality: 60</text>
	<text transform="matrix(1 0 0 1 -450 182.9355)" class="st21 st22" style="font-size:15px;">headline: </text>
	
		<text transform="matrix(1 0 0 1 -450 182.9355)" class="st22" style="fill:none;stroke:#0C59FF;stroke-miterlimit:10; font-size:15px;">headline: </text>
	<text transform="matrix(1 0 0 1 -450 201.9355)" class="st21 st22" style="font-size:15px;">leadin: </text>
	
		<text transform="matrix(1 0 0 1 -450 201.9355)" class="st22" style="fill:none;stroke:#0C59FF;stroke-miterlimit:10; font-size:15px;">leadin: </text>
	<text transform="matrix(1 0 0 1 -450 220.9355)" class="st21 st22" style="font-size:15px;">notes: </text>
	
		<text transform="matrix(1 0 0 1 -450 220.9355)" class="st22" style="fill:none;stroke:#0C59FF;stroke-miterlimit:10; font-size:15px;">notes: </text>
	<text transform="matrix(1 0 0 1 -450 239.9355)" class="st21 st22" style="font-size:15px;">sources: </text>
	
		<text transform="matrix(1 0 0 1 -450 239.9355)" class="st22" style="fill:none;stroke:#0C59FF;stroke-miterlimit:10; font-size:15px;">sources: </text>
	<text transform="matrix(1 0 0 1 -450 258.9355)" class="st21 st22" style="font-size:15px;">credit: </text>
	
		<text transform="matrix(1 0 0 1 -450 258.9355)" class="st22" style="fill:none;stroke:#0C59FF;stroke-miterlimit:10; font-size:15px;">credit: </text>
	<text transform="matrix(1 0 0 1 -393.0161 240.1006)" class="st22 st6">California Water Boards</text>
</g>
</svg>
